<svg width="96" height="70" viewBox="0 0 96 70" fill="none" xmlns="http://www.w3.org/2000/svg">
<path fill-rule="evenodd" clip-rule="evenodd" d="M91.6585 9.8024C85.7871 6.91431 79.5202 8.48774 73.8124 11.2896C69.0768 6.26875 62.9425 2.78585 56.2043 1.29217C49.4661 -0.201515 42.4346 0.362868 36.021 2.91219C29.6073 5.46151 24.107 9.87826 20.2329 15.5901C16.3588 21.302 14.2894 28.0457 14.2928 34.9475C14.2975 36.4326 14.3968 37.9158 14.5902 39.3882C8.99846 41.4464 3.9272 44.8223 1.62208 50.4647C-1.1738 56.9011 4.78976 61.9218 10.9437 61.8386C25.0919 61.1353 36.2273 50.8524 46.2978 41.5528L46.2984 41.5523C47.3022 40.6254 48.2954 39.7081 49.28 38.8112C50.3113 37.8434 51.344 36.8617 52.3818 35.8751C58.7147 29.8546 65.2379 23.6531 72.8008 19.339L72.7977 19.3329C74.463 18.3207 76.2105 17.4506 78.0219 16.7317L78.3909 16.5853L78.394 16.5923C79.5742 16.1205 80.7758 15.7038 81.9948 15.3436C84.0055 14.7933 89.6984 14.02 88.9132 17.4018V17.39C87.4445 20.778 84.793 22.7244 81.7231 24.0827L81.7274 24.0922L79.2005 25.1226L76.4705 25.9697C77.2919 28.5003 77.7661 31.1429 77.8704 33.8253C78.074 39.0604 76.861 44.2535 74.3593 48.8566C71.8576 53.4598 68.16 57.3025 63.6565 59.9795C59.153 62.6564 54.0105 64.0683 48.7714 64.0663C42.4836 64.0663 34.6641 62.365 33.0431 59.8309L28.534 62.716C31.9188 68.0074 42.8465 69.4202 48.7595 69.4202C53.6348 69.4235 58.4553 68.3925 62.9027 66.3951C67.3501 64.3977 71.323 61.4795 74.5592 57.8332C77.7954 54.1868 80.2211 49.8954 81.6762 45.2423C83.1312 40.5892 83.5825 35.6803 83.0002 30.8399C88.6931 28.517 93.7078 24.6771 95.4538 18.5618C96.4442 14.7933 95.076 11.6733 91.6585 9.8024ZM11.6486 55.2712C7.63918 55.5389 6.29478 53.091 9.3881 50.3963C11.3094 48.479 13.58 46.9473 16.0774 45.8842C16.9293 48.4391 18.0825 50.8834 19.5128 53.1654C17.034 54.3256 14.3696 55.0386 11.6427 55.2712H11.6486ZM39.5271 38.2133C37.7924 39.4739 36.2261 40.9511 34.8661 42.609C34.5788 42.3039 34.3541 41.9454 34.2049 41.5537C34.055 41.1606 33.9841 40.7419 33.9961 40.3214C34.0204 39.4721 34.381 38.6673 34.9987 38.084C35.6164 37.5006 36.4405 37.1865 37.2897 37.2108C38.139 37.235 38.9438 37.5957 39.5271 38.2133ZM39.6402 28.053C38.9885 28.0536 38.3513 27.8612 37.8089 27.5C37.2657 27.1382 36.842 26.6235 36.5914 26.0209C36.3409 25.4182 36.2747 24.7548 36.4013 24.1146C36.5279 23.4743 36.8416 22.886 37.3027 22.4241C37.7637 21.9622 38.3515 21.6475 38.9915 21.5197C39.6315 21.3919 40.295 21.4569 40.8981 21.7064C41.5012 21.9559 42.0167 22.3787 42.3794 22.9212C42.7421 23.4638 42.9357 24.1018 42.9357 24.7544C42.9361 25.1877 42.8511 25.6168 42.6854 26.0172C42.5198 26.4176 42.2769 26.7814 41.9705 27.0877C41.6641 27.3941 41.3003 27.6371 40.9 27.8027C40.5005 27.9679 40.0724 28.053 39.6402 28.053ZM53.2894 24.8615C53.016 24.5414 52.8083 24.1706 52.6782 23.7702C52.5481 23.3699 52.4981 22.9478 52.5311 22.5281C52.5641 22.1085 52.6795 21.6994 52.8706 21.3243C53.0617 20.9492 53.3248 20.6154 53.6449 20.342C54.2913 19.7898 55.1307 19.517 55.9782 19.5837C56.3979 19.6167 56.807 19.732 57.1821 19.9231C57.5572 20.1142 57.891 20.3773 58.1644 20.6974C56.3687 21.8722 54.7305 23.2716 53.2894 24.8615ZM65.7995 15.9712C65.0559 16.4768 64.589 16.6255 63.7859 15.9712C59.9758 12.8541 55.5797 11.1438 50.675 10.5906C48.1246 10.3034 45.5443 10.4431 43.0398 11.004C43.4523 11.3688 43.7668 11.8311 43.9546 12.3487C44.1424 12.8664 44.1976 13.4228 44.1149 13.9672C44.0323 14.5116 43.8146 15.0266 43.4817 15.4652C43.1488 15.9038 42.7113 16.252 42.2092 16.478C41.7071 16.704 41.1563 16.8005 40.6073 16.7589C40.0582 16.7172 39.5283 16.5386 39.0661 16.2394C38.6038 15.9403 38.2239 15.53 37.961 15.0462C37.6981 14.5624 37.5606 14.0204 37.5611 13.4698C37.5618 13.2883 37.5777 13.1072 37.6087 12.9284C32.4281 15.5028 28.2911 19.7815 25.8927 25.0459C26.026 25.0294 26.16 25.0205 26.2943 25.0191C26.8257 25.0233 27.3482 25.1558 27.8174 25.4053C28.2866 25.6548 28.6886 26.014 28.9891 26.4523C29.2896 26.8906 29.4797 27.395 29.5434 27.9226C29.607 28.4502 29.5422 28.9854 29.3545 29.4826C29.1668 29.9797 28.8618 30.4242 28.4654 30.7781C28.069 31.1321 27.5929 31.385 27.0777 31.5153C26.5626 31.6457 26.0235 31.6497 25.5065 31.5269C24.9894 31.4041 24.5097 31.1583 24.1081 30.8102C23.8304 32.4604 23.7307 34.1356 23.8107 35.8071C23.8107 35.8071 24.1319 40.5839 25.8481 44.2096C26.2455 45.0514 26.5841 45.7095 26.8543 46.2348C27.4201 47.3345 27.6864 47.8521 27.5663 48.2543C27.4594 48.6119 27.047 48.8781 26.2679 49.3812L26.2021 49.4236C25.5566 49.8401 24.9053 50.2505 24.242 50.6521C20.3884 44.6464 18.8746 37.4346 19.9882 30.3864C21.1018 23.3381 24.7652 16.9443 30.2826 12.4192C35.8 7.89419 42.7872 5.55306 49.9171 5.84049C57.047 6.12792 63.823 9.02388 68.9583 13.9784C67.8667 14.6446 66.8108 15.3228 65.7995 15.9831V15.9712ZM67.4744 50.054C66.9247 49.9806 66.4024 49.7697 65.9559 49.4408C65.5094 49.1119 65.1532 48.6756 64.9201 48.1724C64.687 47.6692 64.5847 47.1153 64.6226 46.5621C64.6605 46.0088 64.8375 45.474 65.137 45.0073C65.4365 44.5406 65.849 44.1571 66.3362 43.8921C66.8234 43.6272 67.3695 43.4895 67.9241 43.4918C68.4787 43.4941 69.0237 43.6363 69.5087 43.9052C69.9936 44.1742 70.4029 44.5611 70.6986 45.0303C72.2672 41.7524 73.0232 38.1449 72.9026 34.513V34.1472C72.8573 34.0251 72.8254 33.8984 72.8074 33.7694C72.7868 33.6084 72.7664 33.4473 72.7461 33.2864L72.7457 33.2828C72.4736 31.1259 72.2034 28.9832 71.1715 27.0771L70.9008 27.1723C68.2924 29.0938 65.8058 31.1401 63.3817 33.2549C63.8678 33.4904 64.2887 33.8418 64.6071 34.2781C64.9255 34.7145 65.1318 35.2224 65.2077 35.7572C65.2837 36.292 65.2271 36.8373 65.0428 37.3451C64.8585 37.8529 64.5522 38.3076 64.1509 38.6691C63.7496 39.0307 63.2655 39.2881 62.7414 39.4187C62.2172 39.5492 61.669 39.5489 61.1449 39.4178C60.6209 39.2866 60.1371 39.0287 59.7362 38.6667C59.3353 38.3046 59.0295 37.8496 58.8458 37.3416C57.1645 38.8988 55.501 40.4749 53.8373 42.0513L53.8373 42.0514C48.5287 47.0814 43.2169 52.1144 37.3086 56.544C47.9032 62.1744 60.4609 58.4773 67.4744 50.054ZM51.6271 48.4686C52.2796 48.4686 52.9175 48.6622 53.46 49.0247C54.0025 49.3873 54.4253 49.9027 54.6748 50.5056C54.9244 51.1085 54.9896 51.7719 54.862 52.4118C54.7345 53.0517 54.4201 53.6395 53.9585 54.1007C53.4969 54.5619 52.9088 54.8758 52.2688 55.0027C51.6287 55.1297 50.9654 55.0639 50.3627 54.8138C49.7601 54.5637 49.2451 54.1404 48.883 53.5976C48.5209 53.0548 48.328 52.4167 48.3285 51.7642C48.3293 50.8899 48.6772 50.0517 49.2957 49.4337C49.9142 48.8158 50.7528 48.4686 51.6271 48.4686Z" fill="black"/>
</svg>
