<svg width="490" height="80" viewBox="0 0 490 80" fill="none" xmlns="http://www.w3.org/2000/svg">
<path fill-rule="evenodd" clip-rule="evenodd" d="M97.6819 14.8024C91.8106 11.9143 85.5436 13.4877 79.8359 16.2896C75.1003 11.2687 68.966 7.78585 62.2278 6.29217C55.4896 4.79848 48.4581 5.36287 42.0444 7.91219C35.6307 10.4615 30.1305 14.8783 26.2563 20.5901C22.3822 26.302 20.3128 33.0457 20.3162 39.9475C20.3209 41.4326 20.4202 42.9158 20.6137 44.3882C15.0219 46.4464 9.95064 49.8223 7.64552 55.4647C4.84963 61.9011 10.8132 66.9218 16.9671 66.8386C31.1154 66.1353 42.2508 55.8524 52.3213 46.5528L52.3218 46.5523C53.3256 45.6254 54.3189 44.7081 55.3035 43.8112C56.3348 42.8434 57.3674 41.8617 58.4052 40.8751C64.7382 34.8546 71.2614 28.6531 78.8242 24.339L78.8212 24.3329C80.4864 23.3207 82.234 22.4506 84.0453 21.7317L84.4144 21.5853L84.4175 21.5923C85.5977 21.1205 86.7992 20.7038 88.0183 20.3436C90.0289 19.7933 95.7218 19.02 94.9366 22.4018V22.39C93.468 25.778 90.8164 27.7244 87.7465 29.0827L87.7508 29.0922L85.2239 30.1226L82.494 30.9697C83.3153 33.5003 83.7896 36.1429 83.8939 38.8253C84.0975 44.0604 82.8844 49.2535 80.3827 53.8566C77.881 58.4598 74.1834 62.3025 69.6799 64.9795C65.1764 67.6564 60.0339 69.0683 54.7948 69.0663C48.5071 69.0663 40.6875 67.365 39.0665 64.8309L34.5574 67.716C37.9422 73.0074 48.8699 74.4202 54.7829 74.4202C59.6582 74.4235 64.4788 73.3925 68.9261 71.3951C73.3735 69.3977 77.3465 66.4795 80.5827 62.8332C83.8188 59.1868 86.2446 54.8954 87.6996 50.2423C89.1547 45.5892 89.6059 40.6803 89.0236 35.8399C94.7165 33.517 99.7312 29.6771 101.477 23.5618C102.468 19.7933 101.099 16.6733 97.6819 14.8024ZM17.672 60.2712C13.6626 60.5389 12.3182 58.091 15.4115 55.3963C17.3328 53.479 19.6035 51.9473 22.1008 50.8842C22.9527 53.4391 24.106 55.8834 25.5362 58.1654C23.0574 59.3256 20.3931 60.0386 17.6661 60.2712H17.672ZM45.5506 43.2133C43.8159 44.4739 42.2495 45.9511 40.8896 47.609C40.6022 47.3039 40.3776 46.9454 40.2283 46.5537C40.0785 46.1606 40.0076 45.7419 40.0196 45.3214C40.0438 44.4721 40.4045 43.6673 41.0221 43.084C41.6398 42.5006 42.4639 42.1865 43.3132 42.2108C44.1624 42.235 44.9672 42.5957 45.5506 43.2133ZM45.6636 33.053C45.012 33.0536 44.3748 32.8612 43.8324 32.5C43.2892 32.1382 42.8654 31.6235 42.6149 31.0209C42.3643 30.4182 42.2981 29.7548 42.4247 29.1146C42.5513 28.4743 42.865 27.886 43.3261 27.4241C43.7872 26.9622 44.3749 26.6475 45.0149 26.5197C45.6549 26.3919 46.3185 26.4569 46.9215 26.7064C47.5246 26.9559 48.0401 27.3787 48.4029 27.9212C48.7656 28.4638 48.9592 29.1018 48.9592 29.7544C48.9596 30.1877 48.8745 30.6168 48.7089 31.0172C48.5433 31.4176 48.3003 31.7814 47.9939 32.0877C47.6875 32.3941 47.3238 32.6371 46.9234 32.8027C46.5239 32.9679 46.0959 33.053 45.6636 33.053ZM59.3129 29.8615C59.0395 29.5414 58.8318 29.1706 58.7016 28.7702C58.5715 28.3699 58.5216 27.9478 58.5546 27.5281C58.5876 27.1085 58.7029 26.6994 58.894 26.3243C59.0851 25.9492 59.3482 25.6154 59.6683 25.342C60.3148 24.7898 61.1541 24.517 62.0017 24.5837C62.4214 24.6167 62.8304 24.732 63.2055 24.9231C63.5806 25.1142 63.9144 25.3773 64.1878 25.6974C62.3922 26.8722 60.7539 28.2716 59.3129 29.8615ZM71.823 20.9712C71.0794 21.4768 70.6124 21.6255 69.8093 20.9712C65.9992 17.8541 61.6031 16.1438 56.6984 15.5906C54.1481 15.3034 51.5677 15.4431 49.0633 16.004C49.4758 16.3688 49.7903 16.8311 49.9781 17.3487C50.1659 17.8664 50.221 18.4228 50.1384 18.9672C50.0558 19.5116 49.8381 20.0266 49.5052 20.4652C49.1723 20.9038 48.7348 21.252 48.2326 21.478C47.7305 21.704 47.1798 21.8005 46.6307 21.7589C46.0816 21.7172 45.5518 21.5386 45.0895 21.2394C44.6272 20.9403 44.2473 20.53 43.9844 20.0462C43.7215 19.5624 43.584 19.0204 43.5845 18.4698C43.5852 18.2883 43.6011 18.1072 43.6321 17.9284C38.4515 20.5028 34.3146 24.7815 31.9162 30.0459C32.0494 30.0294 32.1835 30.0205 32.3177 30.0191C32.8491 30.0233 33.3717 30.1558 33.8408 30.4053C34.31 30.6548 34.712 31.014 35.0125 31.4523C35.313 31.8906 35.5032 32.395 35.5668 32.9226C35.6304 33.4502 35.5656 33.9854 35.378 34.4826C35.1903 34.9797 34.8852 35.4242 34.4888 35.7781C34.0924 36.1321 33.6164 36.385 33.1012 36.5153C32.586 36.6457 32.047 36.6497 31.5299 36.5269C31.0129 36.4041 30.5331 36.1583 30.1316 35.8102C29.8539 37.4604 29.7541 39.1356 29.8341 40.8071C29.8341 40.8071 30.1554 45.5839 31.8716 49.2096C32.269 50.0514 32.6075 50.7095 32.8778 51.2348C33.4436 52.3345 33.7099 52.8521 33.5897 53.2543C33.4828 53.6119 33.0704 53.8781 32.2913 54.3812L32.2255 54.4236C31.5801 54.8401 30.9287 55.2505 30.2654 55.6521C26.4118 49.6464 24.8981 42.4346 26.0117 35.3864C27.1253 28.3381 30.7887 21.9443 36.3061 17.4192C41.8235 12.8942 48.8106 10.5531 55.9405 10.8405C63.0704 11.1279 69.8465 14.0239 74.9817 18.9784C73.8901 19.6446 72.8342 20.3228 71.823 20.9831V20.9712ZM73.4978 55.054C72.9482 54.9806 72.4259 54.7697 71.9794 54.4408C71.5329 54.1119 71.1766 53.6756 70.9435 53.1724C70.7105 52.6692 70.6082 52.1153 70.6461 51.5621C70.684 51.0088 70.8609 50.474 71.1604 50.0073C71.46 49.5406 71.8724 49.1571 72.3596 48.8921C72.8468 48.6272 73.393 48.4895 73.9475 48.4918C74.5021 48.4941 75.0471 48.6363 75.5321 48.9052C76.0171 49.1742 76.4264 49.5611 76.722 50.0303C78.2906 46.7524 79.0466 43.1449 78.926 39.513V39.1472C78.8807 39.0251 78.8488 38.8984 78.8308 38.7694C78.8102 38.6084 78.7899 38.4473 78.7696 38.2864L78.7691 38.2828C78.4971 36.1259 78.2268 33.9832 77.1949 32.0771L76.9243 32.1723C74.3158 34.0938 71.8292 36.1401 69.4051 38.2549C69.8913 38.4904 70.3121 38.8418 70.6305 39.2781C70.9489 39.7145 71.1552 40.2224 71.2312 40.7572C71.3072 41.292 71.2505 41.8373 71.0662 42.3451C70.8819 42.8529 70.5756 43.3076 70.1743 43.6691C69.773 44.0307 69.289 44.2881 68.7648 44.4187C68.2406 44.5492 67.6924 44.5489 67.1684 44.4178C66.6443 44.2866 66.1606 44.0287 65.7597 43.6667C65.3588 43.3046 65.053 42.8496 64.8693 42.3416C63.1879 43.8988 61.5245 45.4749 59.8608 47.0513L59.8607 47.0514C54.5521 52.0814 49.2404 57.1144 43.332 61.544C53.9266 67.1744 66.4843 63.4773 73.4978 55.054ZM57.6505 53.4686C58.303 53.4686 58.9409 53.6622 59.4834 54.0247C60.0259 54.3873 60.4487 54.9027 60.6983 55.5056C60.9478 56.1085 61.013 56.7719 60.8855 57.4118C60.758 58.0517 60.4435 58.6395 59.9819 59.1007C59.5203 59.5619 58.9323 59.8758 58.2922 60.0027C57.6522 60.1297 56.9888 60.0639 56.3862 59.8138C55.7835 59.5637 55.2685 59.1404 54.9064 58.5976C54.5443 58.0548 54.3514 57.4167 54.352 56.7642C54.3528 55.8899 54.7006 55.0517 55.3192 54.4337C55.9377 53.8158 56.7762 53.4686 57.6505 53.4686Z" fill="black"/>
<mask id="path-2-outside-1_1024:3544" maskUnits="userSpaceOnUse" x="124.643" y="7.63843" width="356" height="57" fill="black">
<rect fill="white" x="124.643" y="7.63843" width="356" height="57"/>
<path d="M146.308 11.103C151.294 11.103 155.552 12.6408 159.082 15.7163C162.612 18.7918 164.377 22.5019 164.377 26.8467C164.377 31.1426 162.612 34.8283 159.082 37.9038C155.552 40.9305 151.294 42.4438 146.308 42.4438H135.971V58.3339C135.971 59.4567 135.495 60.4087 134.542 61.1898C133.646 61.9708 132.553 62.3614 131.265 62.3614C129.976 62.3614 128.884 61.9708 127.987 61.1898C127.091 60.4087 126.643 59.4567 126.643 58.3339V15.1305C126.643 14.0077 127.091 13.0557 127.987 12.2746C128.884 11.4936 129.976 11.103 131.265 11.103H146.308ZM135.971 19.2311V34.3157H146.308C148.717 34.3157 150.762 33.5835 152.443 32.1189C154.124 30.6544 154.992 28.897 155.048 26.8467C154.992 24.6987 154.124 22.8924 152.443 21.4279C150.762 19.9634 148.717 19.2311 146.308 19.2311H135.971Z"/>
<path d="M174.207 26.9931C175.104 26.212 176.196 25.8215 177.485 25.8215C178.773 25.8215 179.838 26.212 180.678 26.9931C181.575 27.7254 182.023 28.6773 182.023 29.8489V58.4072C182.023 59.53 181.575 60.4819 180.678 61.263C179.838 61.9953 178.773 62.3614 177.485 62.3614C176.252 62.3614 175.188 61.9708 174.291 61.1898C173.395 60.4087 172.947 59.4811 172.947 58.4072V29.8489C172.947 28.6773 173.367 27.7254 174.207 26.9931ZM182.023 15.0572V16.595C182.023 17.7178 181.575 18.6697 180.678 19.4508C179.838 20.2319 178.773 20.6224 177.485 20.6224C176.252 20.6224 175.188 20.2319 174.291 19.4508C173.395 18.6697 172.947 17.7178 172.947 16.595V15.0572C172.947 13.9832 173.395 13.0557 174.291 12.2746C175.188 11.4936 176.252 11.103 177.485 11.103C178.773 11.103 179.838 11.4936 180.678 12.2746C181.575 13.0069 182.023 13.9344 182.023 15.0572Z"/>
<path d="M191.381 59.8717L191.129 59.2127V58.7001C191.073 58.6513 191.045 58.578 191.045 58.4804V58.4072L191.129 57.8946V57.6017C191.241 57.504 191.297 57.382 191.297 57.2355C191.297 57.0403 191.409 56.845 191.633 56.6497C191.633 56.5521 191.717 56.4301 191.885 56.2836H191.969L210.878 33.5102H195.499C194.322 33.5102 193.286 33.1441 192.389 32.4118C191.493 31.6308 191.045 30.7032 191.045 29.6292C191.045 28.5553 191.493 27.6521 192.389 26.9199C193.286 26.1388 194.322 25.7483 195.499 25.7483H219.786L220.291 25.8215H220.711C220.879 25.8215 220.991 25.8459 221.047 25.8947C221.159 25.9435 221.327 25.9923 221.551 26.0412C221.663 26.1876 221.747 26.2608 221.803 26.2608L222.392 26.5537C222.504 26.5537 222.56 26.6026 222.56 26.7002L222.98 27.0663C223.092 27.0663 223.204 27.1884 223.316 27.4325C223.484 27.6277 223.624 27.7254 223.736 27.7254C223.904 28.1647 223.988 28.4576 223.988 28.6041C223.988 28.7017 224.044 28.7994 224.156 28.897V29.3363L224.24 29.6292V29.7025L224.156 30.0686C224.156 30.4103 224.1 30.6788 223.988 30.8741C223.988 31.0694 223.904 31.1914 223.736 31.2402V31.4599L223.316 31.826V31.8993L204.323 54.5994H219.786C220.963 54.5994 221.999 54.9899 222.896 55.771C223.792 56.5033 224.24 57.4064 224.24 58.4804C224.24 59.5544 223.792 60.4819 222.896 61.263C221.999 61.9953 220.963 62.3614 219.786 62.3614H195.499C195.163 62.3614 194.882 62.337 194.658 62.2882H194.406C194.182 62.1905 194.014 62.1417 193.902 62.1417L193.23 61.8488C193.062 61.7023 192.978 61.6047 192.978 61.5559C192.753 61.5559 192.473 61.385 192.137 61.0433C191.801 60.6528 191.633 60.3843 191.633 60.2378C191.465 60.189 191.381 60.067 191.381 59.8717Z"/>
<path d="M233.026 59.8717L232.773 59.2127V58.7001C232.717 58.6513 232.689 58.578 232.689 58.4804V58.4072L232.773 57.8946V57.6017C232.886 57.504 232.942 57.382 232.942 57.2355C232.942 57.0403 233.054 56.845 233.278 56.6497C233.278 56.5521 233.362 56.4301 233.53 56.2836H233.614L252.523 33.5102H237.144C235.967 33.5102 234.931 33.1441 234.034 32.4118C233.138 31.6308 232.689 30.7032 232.689 29.6292C232.689 28.5553 233.138 27.6521 234.034 26.9199C234.931 26.1388 235.967 25.7483 237.144 25.7483H261.431L261.935 25.8215H262.356C262.524 25.8215 262.636 25.8459 262.692 25.8947C262.804 25.9435 262.972 25.9923 263.196 26.0412C263.308 26.1876 263.392 26.2608 263.448 26.2608L264.036 26.5537C264.148 26.5537 264.205 26.6026 264.205 26.7002L264.625 27.0663C264.737 27.0663 264.849 27.1884 264.961 27.4325C265.129 27.6277 265.269 27.7254 265.381 27.7254C265.549 28.1647 265.633 28.4576 265.633 28.6041C265.633 28.7017 265.689 28.7994 265.801 28.897V29.3363L265.885 29.6292V29.7025L265.801 30.0686C265.801 30.4103 265.745 30.6788 265.633 30.8741C265.633 31.0694 265.549 31.1914 265.381 31.2402V31.4599L264.961 31.826V31.8993L245.968 54.5994H261.431C262.608 54.5994 263.644 54.9899 264.541 55.771C265.437 56.5033 265.885 57.4064 265.885 58.4804C265.885 59.5544 265.437 60.4819 264.541 61.263C263.644 61.9953 262.608 62.3614 261.431 62.3614H237.144C236.807 62.3614 236.527 62.337 236.303 62.2882H236.051C235.827 62.1905 235.659 62.1417 235.547 62.1417L234.874 61.8488C234.706 61.7023 234.622 61.6047 234.622 61.5559C234.398 61.5559 234.118 61.385 233.782 61.0433C233.446 60.6528 233.278 60.3843 233.278 60.2378C233.11 60.189 233.026 60.067 233.026 59.8717Z"/>
<path d="M291.099 62.3614C285.44 62.3614 280.678 60.5795 276.812 57.0159C273.002 53.4522 271.098 49.1562 271.098 44.128C271.098 39.051 273.002 34.7307 276.812 31.167C280.678 27.5545 285.44 25.7483 291.099 25.7483C295.077 25.7483 298.803 26.8222 302.276 28.9702C302.557 28.0427 303.089 27.286 303.873 26.7002C304.658 26.0656 305.61 25.7483 306.731 25.7483C307.907 25.7483 308.916 26.1388 309.756 26.9199C310.652 27.701 311.101 28.6285 311.101 29.7025V58.4804C311.101 59.5544 310.652 60.4819 309.756 61.263C308.916 61.9953 307.907 62.3614 306.731 62.3614C305.61 62.3614 304.658 62.0685 303.873 61.4827C303.089 60.8969 302.557 60.1402 302.276 59.2127C298.859 61.3118 295.133 62.3614 291.099 62.3614ZM280.09 44.128C280.09 47.0571 281.098 49.5224 283.115 51.5239C285.188 53.5254 287.822 54.5262 291.015 54.5262C294.265 54.5262 296.926 53.5254 298.999 51.5239C301.128 49.5224 302.192 47.0571 302.192 44.128C302.192 41.199 301.128 38.7093 298.999 36.659C296.87 34.6086 294.209 33.5835 291.015 33.5835C287.878 33.5835 285.272 34.6086 283.199 36.659C281.126 38.6605 280.09 41.1502 280.09 44.128Z"/>
<path d="M322.353 58.3339V15.1305C322.353 14.0077 322.801 13.0557 323.698 12.2746C324.594 11.4936 325.687 11.103 326.975 11.103H336.892C345.016 11.103 351.935 13.6171 357.65 18.6453C363.365 23.6247 366.222 29.6537 366.222 36.7322C366.222 43.8107 363.365 49.8641 357.65 54.8923C351.935 59.8717 345.016 62.3614 336.892 62.3614H326.975C325.687 62.3614 324.594 61.9708 323.698 61.1898C322.801 60.4087 322.353 59.4567 322.353 58.3339ZM331.681 19.2311V54.2333H336.892C342.439 54.1844 347.145 52.4758 351.011 49.1074C354.933 45.6902 356.893 41.5651 356.893 36.7322C356.893 31.8993 354.933 27.7742 351.011 24.357C347.145 20.9397 342.439 19.2311 336.892 19.2311H331.681Z"/>
<path d="M408.478 59.7985L404.36 50.279H383.939L379.821 59.7985C379.036 61.5071 377.664 62.3614 375.703 62.3614C373.798 62.3614 372.425 61.7756 371.585 60.604C370.744 59.3835 370.576 58.1387 371.08 56.8694L389.653 13.7392C390.045 12.9581 390.634 12.3234 391.418 11.8353C392.258 11.3471 393.155 11.1274 394.107 11.1762C396.236 11.0786 397.721 11.9329 398.562 13.7392L417.134 56.8694C417.639 58.1387 417.471 59.3835 416.63 60.604C415.79 61.7756 414.389 62.3614 412.428 62.3614C410.523 62.3614 409.207 61.5071 408.478 59.7985ZM387.3 42.2242H394.107H400.915L394.107 26.4805L387.3 42.2242Z"/>
<path d="M429.836 54.5993C424.29 49.4247 421.517 43.2249 421.517 35.9999C421.517 28.7749 424.29 22.5751 429.836 17.4004C435.439 12.2258 442.246 9.63843 450.258 9.63843C458.27 9.63843 465.049 12.2746 470.596 17.5469C476.199 22.7703 479 28.9457 479 36.0731C479 43.2005 476.171 49.3515 470.512 54.5261C467.991 56.967 464.965 58.8953 461.436 60.311C457.906 61.6779 454.236 62.3613 450.426 62.3613C442.302 62.3613 435.439 59.774 429.836 54.5993ZM431.097 35.9999C431.097 40.9304 432.974 45.1776 436.728 48.7412C440.482 52.2561 444.992 54.0135 450.258 54.0135C455.581 54.0135 460.091 52.2317 463.789 48.668C467.543 45.0555 469.419 40.8328 469.419 35.9999C469.419 31.1669 467.571 26.9686 463.873 23.405C460.175 19.7925 455.637 17.9862 450.258 17.9862C444.936 17.9862 440.398 19.7681 436.644 23.3317C432.946 26.8466 431.097 31.0693 431.097 35.9999Z"/>
</mask>
<path d="M146.308 11.103C151.294 11.103 155.552 12.6408 159.082 15.7163C162.612 18.7918 164.377 22.5019 164.377 26.8467C164.377 31.1426 162.612 34.8283 159.082 37.9038C155.552 40.9305 151.294 42.4438 146.308 42.4438H135.971V58.3339C135.971 59.4567 135.495 60.4087 134.542 61.1898C133.646 61.9708 132.553 62.3614 131.265 62.3614C129.976 62.3614 128.884 61.9708 127.987 61.1898C127.091 60.4087 126.643 59.4567 126.643 58.3339V15.1305C126.643 14.0077 127.091 13.0557 127.987 12.2746C128.884 11.4936 129.976 11.103 131.265 11.103H146.308ZM135.971 19.2311V34.3157H146.308C148.717 34.3157 150.762 33.5835 152.443 32.1189C154.124 30.6544 154.992 28.897 155.048 26.8467C154.992 24.6987 154.124 22.8924 152.443 21.4279C150.762 19.9634 148.717 19.2311 146.308 19.2311H135.971Z" fill="black"/>
<path d="M174.207 26.9931C175.104 26.212 176.196 25.8215 177.485 25.8215C178.773 25.8215 179.838 26.212 180.678 26.9931C181.575 27.7254 182.023 28.6773 182.023 29.8489V58.4072C182.023 59.53 181.575 60.4819 180.678 61.263C179.838 61.9953 178.773 62.3614 177.485 62.3614C176.252 62.3614 175.188 61.9708 174.291 61.1898C173.395 60.4087 172.947 59.4811 172.947 58.4072V29.8489C172.947 28.6773 173.367 27.7254 174.207 26.9931ZM182.023 15.0572V16.595C182.023 17.7178 181.575 18.6697 180.678 19.4508C179.838 20.2319 178.773 20.6224 177.485 20.6224C176.252 20.6224 175.188 20.2319 174.291 19.4508C173.395 18.6697 172.947 17.7178 172.947 16.595V15.0572C172.947 13.9832 173.395 13.0557 174.291 12.2746C175.188 11.4936 176.252 11.103 177.485 11.103C178.773 11.103 179.838 11.4936 180.678 12.2746C181.575 13.0069 182.023 13.9344 182.023 15.0572Z" fill="black"/>
<path d="M191.381 59.8717L191.129 59.2127V58.7001C191.073 58.6513 191.045 58.578 191.045 58.4804V58.4072L191.129 57.8946V57.6017C191.241 57.504 191.297 57.382 191.297 57.2355C191.297 57.0403 191.409 56.845 191.633 56.6497C191.633 56.5521 191.717 56.4301 191.885 56.2836H191.969L210.878 33.5102H195.499C194.322 33.5102 193.286 33.1441 192.389 32.4118C191.493 31.6308 191.045 30.7032 191.045 29.6292C191.045 28.5553 191.493 27.6521 192.389 26.9199C193.286 26.1388 194.322 25.7483 195.499 25.7483H219.786L220.291 25.8215H220.711C220.879 25.8215 220.991 25.8459 221.047 25.8947C221.159 25.9435 221.327 25.9923 221.551 26.0412C221.663 26.1876 221.747 26.2608 221.803 26.2608L222.392 26.5537C222.504 26.5537 222.56 26.6026 222.56 26.7002L222.98 27.0663C223.092 27.0663 223.204 27.1884 223.316 27.4325C223.484 27.6277 223.624 27.7254 223.736 27.7254C223.904 28.1647 223.988 28.4576 223.988 28.6041C223.988 28.7017 224.044 28.7994 224.156 28.897V29.3363L224.24 29.6292V29.7025L224.156 30.0686C224.156 30.4103 224.1 30.6788 223.988 30.8741C223.988 31.0694 223.904 31.1914 223.736 31.2402V31.4599L223.316 31.826V31.8993L204.323 54.5994H219.786C220.963 54.5994 221.999 54.9899 222.896 55.771C223.792 56.5033 224.24 57.4064 224.24 58.4804C224.24 59.5544 223.792 60.4819 222.896 61.263C221.999 61.9953 220.963 62.3614 219.786 62.3614H195.499C195.163 62.3614 194.882 62.337 194.658 62.2882H194.406C194.182 62.1905 194.014 62.1417 193.902 62.1417L193.23 61.8488C193.062 61.7023 192.978 61.6047 192.978 61.5559C192.753 61.5559 192.473 61.385 192.137 61.0433C191.801 60.6528 191.633 60.3843 191.633 60.2378C191.465 60.189 191.381 60.067 191.381 59.8717Z" fill="black"/>
<path d="M233.026 59.8717L232.773 59.2127V58.7001C232.717 58.6513 232.689 58.578 232.689 58.4804V58.4072L232.773 57.8946V57.6017C232.886 57.504 232.942 57.382 232.942 57.2355C232.942 57.0403 233.054 56.845 233.278 56.6497C233.278 56.5521 233.362 56.4301 233.53 56.2836H233.614L252.523 33.5102H237.144C235.967 33.5102 234.931 33.1441 234.034 32.4118C233.138 31.6308 232.689 30.7032 232.689 29.6292C232.689 28.5553 233.138 27.6521 234.034 26.9199C234.931 26.1388 235.967 25.7483 237.144 25.7483H261.431L261.935 25.8215H262.356C262.524 25.8215 262.636 25.8459 262.692 25.8947C262.804 25.9435 262.972 25.9923 263.196 26.0412C263.308 26.1876 263.392 26.2608 263.448 26.2608L264.036 26.5537C264.148 26.5537 264.205 26.6026 264.205 26.7002L264.625 27.0663C264.737 27.0663 264.849 27.1884 264.961 27.4325C265.129 27.6277 265.269 27.7254 265.381 27.7254C265.549 28.1647 265.633 28.4576 265.633 28.6041C265.633 28.7017 265.689 28.7994 265.801 28.897V29.3363L265.885 29.6292V29.7025L265.801 30.0686C265.801 30.4103 265.745 30.6788 265.633 30.8741C265.633 31.0694 265.549 31.1914 265.381 31.2402V31.4599L264.961 31.826V31.8993L245.968 54.5994H261.431C262.608 54.5994 263.644 54.9899 264.541 55.771C265.437 56.5033 265.885 57.4064 265.885 58.4804C265.885 59.5544 265.437 60.4819 264.541 61.263C263.644 61.9953 262.608 62.3614 261.431 62.3614H237.144C236.807 62.3614 236.527 62.337 236.303 62.2882H236.051C235.827 62.1905 235.659 62.1417 235.547 62.1417L234.874 61.8488C234.706 61.7023 234.622 61.6047 234.622 61.5559C234.398 61.5559 234.118 61.385 233.782 61.0433C233.446 60.6528 233.278 60.3843 233.278 60.2378C233.11 60.189 233.026 60.067 233.026 59.8717Z" fill="black"/>
<path d="M291.099 62.3614C285.44 62.3614 280.678 60.5795 276.812 57.0159C273.002 53.4522 271.098 49.1562 271.098 44.128C271.098 39.051 273.002 34.7307 276.812 31.167C280.678 27.5545 285.44 25.7483 291.099 25.7483C295.077 25.7483 298.803 26.8222 302.276 28.9702C302.557 28.0427 303.089 27.286 303.873 26.7002C304.658 26.0656 305.61 25.7483 306.731 25.7483C307.907 25.7483 308.916 26.1388 309.756 26.9199C310.652 27.701 311.101 28.6285 311.101 29.7025V58.4804C311.101 59.5544 310.652 60.4819 309.756 61.263C308.916 61.9953 307.907 62.3614 306.731 62.3614C305.61 62.3614 304.658 62.0685 303.873 61.4827C303.089 60.8969 302.557 60.1402 302.276 59.2127C298.859 61.3118 295.133 62.3614 291.099 62.3614ZM280.09 44.128C280.09 47.0571 281.098 49.5224 283.115 51.5239C285.188 53.5254 287.822 54.5262 291.015 54.5262C294.265 54.5262 296.926 53.5254 298.999 51.5239C301.128 49.5224 302.192 47.0571 302.192 44.128C302.192 41.199 301.128 38.7093 298.999 36.659C296.87 34.6086 294.209 33.5835 291.015 33.5835C287.878 33.5835 285.272 34.6086 283.199 36.659C281.126 38.6605 280.09 41.1502 280.09 44.128Z" fill="black"/>
<path d="M322.353 58.3339V15.1305C322.353 14.0077 322.801 13.0557 323.698 12.2746C324.594 11.4936 325.687 11.103 326.975 11.103H336.892C345.016 11.103 351.935 13.6171 357.65 18.6453C363.365 23.6247 366.222 29.6537 366.222 36.7322C366.222 43.8107 363.365 49.8641 357.65 54.8923C351.935 59.8717 345.016 62.3614 336.892 62.3614H326.975C325.687 62.3614 324.594 61.9708 323.698 61.1898C322.801 60.4087 322.353 59.4567 322.353 58.3339ZM331.681 19.2311V54.2333H336.892C342.439 54.1844 347.145 52.4758 351.011 49.1074C354.933 45.6902 356.893 41.5651 356.893 36.7322C356.893 31.8993 354.933 27.7742 351.011 24.357C347.145 20.9397 342.439 19.2311 336.892 19.2311H331.681Z" fill="black"/>
<path d="M408.478 59.7985L404.36 50.279H383.939L379.821 59.7985C379.036 61.5071 377.664 62.3614 375.703 62.3614C373.798 62.3614 372.425 61.7756 371.585 60.604C370.744 59.3835 370.576 58.1387 371.08 56.8694L389.653 13.7392C390.045 12.9581 390.634 12.3234 391.418 11.8353C392.258 11.3471 393.155 11.1274 394.107 11.1762C396.236 11.0786 397.721 11.9329 398.562 13.7392L417.134 56.8694C417.639 58.1387 417.471 59.3835 416.63 60.604C415.79 61.7756 414.389 62.3614 412.428 62.3614C410.523 62.3614 409.207 61.5071 408.478 59.7985ZM387.3 42.2242H394.107H400.915L394.107 26.4805L387.3 42.2242Z" fill="black"/>
<path d="M429.836 54.5993C424.29 49.4247 421.517 43.2249 421.517 35.9999C421.517 28.7749 424.29 22.5751 429.836 17.4004C435.439 12.2258 442.246 9.63843 450.258 9.63843C458.27 9.63843 465.049 12.2746 470.596 17.5469C476.199 22.7703 479 28.9457 479 36.0731C479 43.2005 476.171 49.3515 470.512 54.5261C467.991 56.967 464.965 58.8953 461.436 60.311C457.906 61.6779 454.236 62.3613 450.426 62.3613C442.302 62.3613 435.439 59.774 429.836 54.5993ZM431.097 35.9999C431.097 40.9304 432.974 45.1776 436.728 48.7412C440.482 52.2561 444.992 54.0135 450.258 54.0135C455.581 54.0135 460.091 52.2317 463.789 48.668C467.543 45.0555 469.419 40.8328 469.419 35.9999C469.419 31.1669 467.571 26.9686 463.873 23.405C460.175 19.7925 455.637 17.9862 450.258 17.9862C444.936 17.9862 440.398 19.7681 436.644 23.3317C432.946 26.8466 431.097 31.0693 431.097 35.9999Z" fill="black"/>
<path d="M159.082 15.7163L158.228 16.6964L158.228 16.6964L159.082 15.7163ZM159.082 37.9038L159.928 38.8907L159.936 38.8839L159.082 37.9038ZM135.971 42.4438V41.1438C135.253 41.1438 134.671 41.7259 134.671 42.4438H135.971ZM134.542 61.1898L133.718 60.1845C133.708 60.1928 133.698 60.2011 133.688 60.2096L134.542 61.1898ZM127.987 12.2746L128.841 13.2548L128.841 13.2548L127.987 12.2746ZM135.971 19.2311V17.9311C135.253 17.9311 134.671 18.5132 134.671 19.2311H135.971ZM135.971 34.3157H134.671C134.671 35.0337 135.253 35.6157 135.971 35.6157V34.3157ZM155.048 26.8467L156.348 26.8822C156.348 26.859 156.348 26.8359 156.348 26.8128L155.048 26.8467ZM152.443 21.4279L151.589 22.408L151.589 22.408L152.443 21.4279ZM174.207 26.9931L175.061 27.9732L175.061 27.9732L174.207 26.9931ZM180.678 26.9931L179.793 27.9453C179.814 27.9642 179.835 27.9824 179.856 27.9999L180.678 26.9931ZM180.678 61.263L179.824 60.2829L179.824 60.2829L180.678 61.263ZM174.291 61.1898L175.145 60.2096L175.145 60.2096L174.291 61.1898ZM180.678 19.4508L179.824 18.4707C179.814 18.4798 179.804 18.4891 179.793 18.4986L180.678 19.4508ZM174.291 19.4508L173.437 20.4309L173.437 20.4309L174.291 19.4508ZM174.291 12.2746L175.145 13.2548L175.145 13.2548L174.291 12.2746ZM180.678 12.2746L179.793 13.2269C179.814 13.2457 179.835 13.2639 179.856 13.2814L180.678 12.2746ZM191.381 59.8717H192.681C192.681 59.7129 192.652 59.5555 192.595 59.4072L191.381 59.8717ZM191.129 59.2127H189.829C189.829 59.3714 189.858 59.5289 189.914 59.6771L191.129 59.2127ZM191.129 58.7001H192.429C192.429 58.3243 192.266 57.9668 191.983 57.7199L191.129 58.7001ZM191.045 58.4072L189.762 58.1968C189.75 58.2664 189.745 58.3367 189.745 58.4072H191.045ZM191.129 57.8946L192.411 58.1049C192.423 58.0354 192.429 57.965 192.429 57.8946H191.129ZM191.129 57.6017L190.275 56.6215C189.991 56.8684 189.829 57.2259 189.829 57.6017H191.129ZM191.633 56.6497L192.487 57.6299C192.77 57.383 192.933 57.0255 192.933 56.6497H191.633ZM191.885 56.2836V54.9836C191.571 54.9836 191.268 55.0972 191.031 55.3035L191.885 56.2836ZM191.969 56.2836V57.5836C192.356 57.5836 192.722 57.4115 192.969 57.1141L191.969 56.2836ZM210.878 33.5102L211.878 34.3407C212.2 33.9529 212.269 33.414 212.055 32.9578C211.841 32.5016 211.382 32.2102 210.878 32.2102V33.5102ZM192.389 32.4118L191.535 33.392C191.546 33.401 191.556 33.4099 191.567 33.4186L192.389 32.4118ZM192.389 26.9199L193.212 27.9267C193.222 27.918 193.233 27.9091 193.243 27.9L192.389 26.9199ZM219.786 25.7483L219.973 24.4618C219.911 24.4528 219.849 24.4483 219.786 24.4483V25.7483ZM220.291 25.8215L220.104 27.108C220.166 27.117 220.228 27.1215 220.291 27.1215V25.8215ZM221.047 25.8947L220.193 26.8748C220.293 26.9621 220.406 27.0335 220.528 27.0865L221.047 25.8947ZM221.551 26.0412L222.584 25.2512C222.397 25.0067 222.129 24.8365 221.828 24.771L221.551 26.0412ZM221.803 26.2608L222.383 25.0971C222.203 25.0075 222.004 24.9608 221.803 24.9608V26.2608ZM222.392 26.5537L221.812 27.7175C221.992 27.8071 222.19 27.8537 222.392 27.8537V26.5537ZM222.56 26.7002H221.26C221.26 27.076 221.422 27.4334 221.706 27.6803L222.56 26.7002ZM222.98 27.0663L222.126 28.0464C222.363 28.2527 222.666 28.3663 222.98 28.3663V27.0663ZM223.316 27.4325L222.135 27.9748C222.185 28.0854 222.251 28.1883 222.331 28.2805L223.316 27.4325ZM223.736 27.7254L224.95 27.2609C224.758 26.7577 224.275 26.4254 223.736 26.4254V27.7254ZM224.156 28.897H225.456C225.456 28.5212 225.294 28.1637 225.01 27.9169L224.156 28.897ZM224.156 29.3363H222.856C222.856 29.4576 222.873 29.5783 222.907 29.6948L224.156 29.3363ZM224.24 29.6292H225.54C225.54 29.508 225.523 29.3873 225.49 29.2708L224.24 29.6292ZM224.24 29.7025L225.508 29.9933C225.529 29.8979 225.54 29.8003 225.54 29.7025H224.24ZM224.156 30.0686L222.889 29.7778C222.867 29.8732 222.856 29.9707 222.856 30.0686H224.156ZM223.988 30.8741L222.861 30.2271C222.748 30.424 222.688 30.6471 222.688 30.8741H223.988ZM223.736 31.2402L223.374 29.9918C222.818 30.1531 222.436 30.6619 222.436 31.2402H223.736ZM223.736 31.4599L224.59 32.44C224.874 32.1931 225.036 31.8357 225.036 31.4599H223.736ZM223.316 31.826L222.462 30.8459C222.179 31.0928 222.016 31.4502 222.016 31.826H223.316ZM223.316 31.8993L224.313 32.7335C224.509 32.4996 224.616 32.2043 224.616 31.8993H223.316ZM204.323 54.5994L203.326 53.7652C203.002 54.1524 202.931 54.6922 203.145 55.1496C203.359 55.6071 203.818 55.8994 204.323 55.8994V54.5994ZM222.896 55.771L222.042 56.7512C222.052 56.7602 222.063 56.7691 222.073 56.7778L222.896 55.771ZM222.896 61.263L223.718 62.2698C223.729 62.2611 223.739 62.2522 223.75 62.2431L222.896 61.263ZM194.658 62.2882L194.935 61.0179C194.844 60.9981 194.751 60.9882 194.658 60.9882V62.2882ZM194.406 62.2882L193.887 63.48C194.051 63.5513 194.228 63.5882 194.406 63.5882V62.2882ZM193.902 62.1417L193.383 63.3335C193.547 63.4049 193.723 63.4417 193.902 63.4417V62.1417ZM193.23 61.8488L192.376 62.8289C192.476 62.9162 192.589 62.9876 192.71 63.0406L193.23 61.8488ZM192.978 61.5559H194.278C194.278 60.8379 193.695 60.2559 192.978 60.2559V61.5559ZM192.137 61.0433L191.152 61.8914C191.171 61.9132 191.19 61.9344 191.21 61.955L192.137 61.0433ZM191.633 60.2378H192.933C192.933 59.6595 192.551 59.1507 191.995 58.9894L191.633 60.2378ZM233.026 59.8717H234.326C234.326 59.7129 234.297 59.5555 234.24 59.4072L233.026 59.8717ZM232.773 59.2127H231.473C231.473 59.3714 231.503 59.5288 231.559 59.6771L232.773 59.2127ZM232.773 58.7001H234.073C234.073 58.3243 233.911 57.9668 233.628 57.7199L232.773 58.7001ZM232.689 58.4072L231.407 58.1968C231.395 58.2663 231.389 58.3367 231.389 58.4072H232.689ZM232.773 57.8946L234.056 58.105C234.068 58.0354 234.073 57.9651 234.073 57.8946H232.773ZM232.773 57.6017L231.919 56.6215C231.636 56.8684 231.473 57.2259 231.473 57.6017H232.773ZM233.278 56.6497L234.132 57.6299C234.415 57.383 234.578 57.0255 234.578 56.6497H233.278ZM233.53 56.2836V54.9836C233.216 54.9836 232.913 55.0972 232.676 55.3035L233.53 56.2836ZM233.614 56.2836V57.5836C234.001 57.5836 234.367 57.4115 234.614 57.1141L233.614 56.2836ZM252.523 33.5102L253.523 34.3407C253.845 33.9529 253.914 33.414 253.7 32.9578C253.486 32.5016 253.027 32.2102 252.523 32.2102V33.5102ZM234.034 32.4118L233.18 33.392C233.19 33.401 233.201 33.4099 233.212 33.4186L234.034 32.4118ZM234.034 26.9199L234.857 27.9267C234.867 27.918 234.878 27.9091 234.888 27.9L234.034 26.9199ZM261.431 25.7483L261.618 24.4618C261.556 24.4528 261.494 24.4483 261.431 24.4483V25.7483ZM261.935 25.8215L261.749 27.108C261.81 27.117 261.873 27.1215 261.935 27.1215V25.8215ZM262.692 25.8947L261.838 26.8748C261.938 26.9621 262.051 27.0335 262.173 27.0865L262.692 25.8947ZM263.196 26.0412L264.228 25.2512C264.041 25.0067 263.774 24.8365 263.473 24.771L263.196 26.0412ZM263.448 26.2608L264.028 25.0971C263.848 25.0075 263.649 24.9608 263.448 24.9608V26.2608ZM264.036 26.5537L263.457 27.7175C263.637 27.8071 263.835 27.8537 264.036 27.8537V26.5537ZM264.205 26.7002H262.905C262.905 27.076 263.067 27.4334 263.35 27.6803L264.205 26.7002ZM264.625 27.0663L263.771 28.0465C264.007 28.2527 264.311 28.3663 264.625 28.3663V27.0663ZM264.961 27.4325L263.779 27.9748C263.83 28.0854 263.896 28.1883 263.976 28.2805L264.961 27.4325ZM265.381 27.7254L266.595 27.2609C266.403 26.7577 265.92 26.4254 265.381 26.4254V27.7254ZM265.801 28.897H267.101C267.101 28.5212 266.939 28.1637 266.655 27.9169L265.801 28.897ZM265.801 29.3363H264.501C264.501 29.4576 264.518 29.5783 264.552 29.6948L265.801 29.3363ZM265.885 29.6292H267.185C267.185 29.508 267.168 29.3873 267.135 29.2708L265.885 29.6292ZM265.885 29.7025L267.152 29.9933C267.174 29.8979 267.185 29.8003 267.185 29.7025H265.885ZM265.801 30.0686L264.534 29.7778C264.512 29.8732 264.501 29.9707 264.501 30.0686H265.801ZM265.633 30.8741L264.506 30.2271C264.393 30.424 264.333 30.6471 264.333 30.8741H265.633ZM265.381 31.2402L265.018 29.9918C264.463 30.1531 264.081 30.6619 264.081 31.2402H265.381ZM265.381 31.4599L266.235 32.44C266.518 32.1931 266.681 31.8357 266.681 31.4599H265.381ZM264.961 31.826L264.107 30.8459C263.824 31.0928 263.661 31.4502 263.661 31.826H264.961ZM264.961 31.8993L265.958 32.7335C266.154 32.4996 266.261 32.2043 266.261 31.8993H264.961ZM245.968 54.5994L244.971 53.7652C244.647 54.1524 244.576 54.6922 244.79 55.1496C245.004 55.6071 245.463 55.8994 245.968 55.8994V54.5994ZM264.541 55.771L263.687 56.7512C263.697 56.7602 263.708 56.7691 263.718 56.7778L264.541 55.771ZM264.541 61.263L265.363 62.2698C265.374 62.2611 265.384 62.2522 265.395 62.2431L264.541 61.263ZM236.303 62.2882L236.58 61.0179C236.489 60.9981 236.396 60.9882 236.303 60.9882V62.2882ZM236.051 62.2882L235.532 63.48C235.696 63.5513 235.872 63.5882 236.051 63.5882V62.2882ZM235.547 62.1417L235.028 63.3335C235.191 63.4049 235.368 63.4417 235.547 63.4417V62.1417ZM234.874 61.8488L234.02 62.8289C234.121 62.9162 234.233 62.9875 234.355 63.0406L234.874 61.8488ZM234.622 61.5559H235.922C235.922 60.8379 235.34 60.2559 234.622 60.2559V61.5559ZM233.782 61.0433L232.797 61.8914C232.816 61.9132 232.835 61.9344 232.855 61.955L233.782 61.0433ZM233.278 60.2378H234.578C234.578 59.6595 234.196 59.1507 233.64 58.9894L233.278 60.2378ZM276.812 57.0159L275.924 57.9653L275.931 57.9717L276.812 57.0159ZM276.812 31.167L275.925 30.2172L275.924 30.2176L276.812 31.167ZM302.276 28.9702L301.593 30.0759C301.936 30.2883 302.359 30.329 302.737 30.186C303.114 30.0431 303.404 29.7327 303.521 29.3461L302.276 28.9702ZM303.873 26.7002L304.651 27.7418C304.665 27.7317 304.678 27.7214 304.691 27.7108L303.873 26.7002ZM309.756 26.9199L308.871 27.8721C308.881 27.8816 308.892 27.8909 308.902 27.9L309.756 26.9199ZM309.756 61.263L308.902 60.2829L308.902 60.2829L309.756 61.263ZM303.873 61.4827L303.095 62.5242L303.095 62.5242L303.873 61.4827ZM302.276 59.2127L303.521 58.8368C303.404 58.4508 303.115 58.1408 302.739 57.9975C302.362 57.8542 301.94 57.8939 301.596 58.1049L302.276 59.2127ZM283.115 51.5239L282.2 52.4467C282.204 52.4508 282.208 52.455 282.212 52.4591L283.115 51.5239ZM298.999 51.5239L298.108 50.5767C298.104 50.5807 298.1 50.5847 298.096 50.5887L298.999 51.5239ZM298.999 36.659L298.097 37.5953L298.097 37.5953L298.999 36.659ZM283.199 36.659L284.102 37.5942C284.106 37.5906 284.11 37.5869 284.114 37.5832L283.199 36.659ZM323.698 12.2746L324.552 13.2548L324.552 13.2548L323.698 12.2746ZM357.65 18.6453L356.791 19.6213L356.796 19.6254L357.65 18.6453ZM357.65 54.8923L358.504 55.8724L358.509 55.8683L357.65 54.8923ZM331.681 19.2311V17.9311C330.963 17.9311 330.381 18.5132 330.381 19.2311H331.681ZM331.681 54.2333H330.381C330.381 54.9512 330.963 55.5333 331.681 55.5333V54.2333ZM336.892 54.2333V55.5333L336.903 55.5332L336.892 54.2333ZM351.011 49.1074L350.157 48.1273L350.157 48.1273L351.011 49.1074ZM351.011 24.357L350.15 25.331L350.157 25.3371L351.011 24.357ZM408.478 59.7985L409.674 59.2887L409.671 59.2823L408.478 59.7985ZM404.36 50.279L405.553 49.7629C405.348 49.2871 404.879 48.979 404.36 48.979V50.279ZM383.939 50.279V48.979C383.42 48.979 382.951 49.2871 382.745 49.7629L383.939 50.279ZM379.821 59.7985L381.002 60.3408C381.006 60.3321 381.01 60.3234 381.014 60.3146L379.821 59.7985ZM371.585 60.604L370.514 61.3412C370.519 61.3481 370.523 61.3549 370.528 61.3617L371.585 60.604ZM371.08 56.8694L369.886 56.3552C369.882 56.3666 369.877 56.378 369.872 56.3894L371.08 56.8694ZM389.653 13.7392L388.491 13.1558C388.48 13.1786 388.469 13.2016 388.459 13.225L389.653 13.7392ZM391.418 11.8353L390.765 10.7112C390.754 10.7178 390.742 10.7246 390.731 10.7316L391.418 11.8353ZM394.107 11.1762L394.041 12.4745C394.083 12.4767 394.125 12.4768 394.167 12.4749L394.107 11.1762ZM398.562 13.7392L399.756 13.225C399.751 13.2135 399.745 13.2021 399.74 13.1908L398.562 13.7392ZM417.134 56.8694L418.343 56.3894C418.338 56.378 418.333 56.3666 418.328 56.3552L417.134 56.8694ZM416.63 60.604L417.687 61.3617C417.691 61.3549 417.696 61.3481 417.701 61.3412L416.63 60.604ZM387.3 42.2242L386.107 41.7082C385.933 42.11 385.973 42.5722 386.214 42.9381C386.454 43.3039 386.862 43.5242 387.3 43.5242V42.2242ZM400.915 42.2242V43.5242C401.352 43.5242 401.761 43.3039 402.001 42.9381C402.241 42.5722 402.282 42.11 402.108 41.7082L400.915 42.2242ZM394.107 26.4805L395.301 25.9646C395.095 25.4887 394.626 25.1805 394.107 25.1805C393.589 25.1805 393.12 25.4887 392.914 25.9646L394.107 26.4805ZM429.836 54.5993L428.95 55.5499L428.954 55.5543L429.836 54.5993ZM429.836 17.4004L428.954 16.4454L428.95 16.4498L429.836 17.4004ZM470.596 17.5469L469.7 18.4892L469.71 18.4977L470.596 17.5469ZM470.512 54.5261L469.635 53.5668C469.626 53.5751 469.617 53.5835 469.608 53.5921L470.512 54.5261ZM461.436 60.311L461.905 61.5233C461.91 61.5214 461.915 61.5195 461.92 61.5176L461.436 60.311ZM436.728 48.7412L435.833 49.6841L435.839 49.6902L436.728 48.7412ZM463.789 48.668L462.887 47.7313L462.887 47.732L463.789 48.668ZM463.873 23.405L462.964 24.3349L462.971 24.341L463.873 23.405ZM436.644 23.3317L435.749 22.3889L435.748 22.3895L436.644 23.3317ZM146.308 12.403C151.003 12.403 154.951 13.8413 158.228 16.6964L159.936 14.7361C156.153 11.4402 151.586 9.80301 146.308 9.80301V12.403ZM158.228 16.6964C161.499 19.5467 163.077 22.9094 163.077 26.8467H165.677C165.677 22.0944 163.724 18.0369 159.936 14.7361L158.228 16.6964ZM163.077 26.8467C163.077 30.7304 161.503 34.0701 158.228 36.9237L159.936 38.8839C163.72 35.5865 165.677 31.5548 165.677 26.8467H163.077ZM158.236 36.917C154.96 39.7263 151.008 41.1438 146.308 41.1438V43.7438C151.58 43.7438 156.145 42.1347 159.928 38.8907L158.236 36.917ZM146.308 41.1438H135.971V43.7438H146.308V41.1438ZM134.671 42.4438V58.3339H137.271V42.4438H134.671ZM134.671 58.3339C134.671 59.0263 134.403 59.6232 133.718 60.1845L135.367 62.195C136.587 61.1942 137.271 59.8871 137.271 58.3339H134.671ZM133.688 60.2096C133.049 60.7665 132.268 61.0614 131.265 61.0614V63.6614C132.839 63.6614 134.243 63.1752 135.396 62.1699L133.688 60.2096ZM131.265 61.0614C130.262 61.0614 129.48 60.7665 128.841 60.2096L127.133 62.1699C128.287 63.1752 129.691 63.6614 131.265 63.6614V61.0614ZM128.841 60.2096C128.209 59.6589 127.943 59.0565 127.943 58.3339H125.343C125.343 59.857 125.972 61.1585 127.133 62.1699L128.841 60.2096ZM127.943 58.3339V15.1305H125.343V58.3339H127.943ZM127.943 15.1305C127.943 14.4079 128.209 13.8055 128.841 13.2548L127.133 11.2945C125.972 12.3059 125.343 13.6074 125.343 15.1305H127.943ZM128.841 13.2548C129.48 12.6979 130.262 12.403 131.265 12.403V9.80301C129.691 9.80301 128.287 10.2892 127.133 11.2945L128.841 13.2548ZM131.265 12.403H146.308V9.80301H131.265V12.403ZM134.671 19.2311V34.3157H137.271V19.2311H134.671ZM135.971 35.6157H146.308V33.0157H135.971V35.6157ZM146.308 35.6157C149.004 35.6157 151.36 34.7872 153.297 33.0991L151.589 31.1388C150.165 32.3798 148.431 33.0157 146.308 33.0157V35.6157ZM153.297 33.0991C155.225 31.419 156.281 29.3296 156.348 26.8822L153.749 26.8111C153.703 28.4643 153.022 29.8899 151.589 31.1388L153.297 33.0991ZM156.348 26.8128C156.282 24.2857 155.241 22.1413 153.297 20.4478L151.589 22.408C153.007 23.6436 153.702 25.1116 153.749 26.8806L156.348 26.8128ZM153.297 20.4478C151.36 18.7597 149.004 17.9311 146.308 17.9311V20.5311C148.431 20.5311 150.165 21.1671 151.589 22.408L153.297 20.4478ZM146.308 17.9311H135.971V20.5311H146.308V17.9311ZM175.061 27.9732C175.7 27.4164 176.482 27.1215 177.485 27.1215V24.5215C175.911 24.5215 174.507 25.0077 173.353 26.013L175.061 27.9732ZM177.485 27.1215C178.489 27.1215 179.224 27.4158 179.793 27.9453L181.563 26.0409C180.452 25.0082 179.058 24.5215 177.485 24.5215V27.1215ZM179.856 27.9999C180.446 28.4818 180.723 29.062 180.723 29.8489H183.323C183.323 28.2926 182.704 26.969 181.501 25.9863L179.856 27.9999ZM180.723 29.8489V58.4072H183.323V29.8489H180.723ZM180.723 58.4072C180.723 59.1297 180.456 59.7321 179.824 60.2829L181.532 62.2431C182.693 61.2317 183.323 59.9302 183.323 58.4072H180.723ZM179.824 60.2829C179.257 60.7771 178.511 61.0614 177.485 61.0614V63.6614C179.035 63.6614 180.419 63.2134 181.532 62.2431L179.824 60.2829ZM177.485 61.0614C176.554 61.0614 175.796 60.7763 175.145 60.2096L173.437 62.1699C174.58 63.1654 175.951 63.6614 177.485 63.6614V61.0614ZM175.145 60.2096C174.498 59.6458 174.247 59.0624 174.247 58.4072H171.647C171.647 59.8999 172.292 61.1716 173.437 62.1699L175.145 60.2096ZM174.247 58.4072V29.8489H171.647V58.4072H174.247ZM174.247 29.8489C174.247 29.0313 174.52 28.4446 175.061 27.9732L173.353 26.013C172.213 27.0061 171.647 28.3233 171.647 29.8489H174.247ZM180.723 15.0572V16.595H183.323V15.0572H180.723ZM180.723 16.595C180.723 17.3175 180.456 17.9199 179.824 18.4707L181.532 20.4309C182.693 19.4195 183.323 18.118 183.323 16.595H180.723ZM179.793 18.4986C179.224 19.0281 178.489 19.3224 177.485 19.3224V21.9224C179.058 21.9224 180.452 21.4357 181.563 20.403L179.793 18.4986ZM177.485 19.3224C176.554 19.3224 175.796 19.0374 175.145 18.4707L173.437 20.4309C174.58 21.4264 175.951 21.9224 177.485 21.9224V19.3224ZM175.145 18.4707C174.513 17.9199 174.247 17.3175 174.247 16.595H171.647C171.647 18.118 172.276 19.4195 173.437 20.4309L175.145 18.4707ZM174.247 16.595V15.0572H171.647V16.595H174.247ZM174.247 15.0572C174.247 14.402 174.498 13.8186 175.145 13.2548L173.437 11.2945C172.292 12.2928 171.647 13.5645 171.647 15.0572H174.247ZM175.145 13.2548C175.796 12.6881 176.554 12.403 177.485 12.403V9.80301C175.951 9.80301 174.58 10.299 173.437 11.2945L175.145 13.2548ZM177.485 12.403C178.489 12.403 179.224 12.6974 179.793 13.2269L181.563 11.3224C180.452 10.2897 179.058 9.80301 177.485 9.80301V12.403ZM179.856 13.2814C180.461 13.7756 180.723 14.3384 180.723 15.0572H183.323C183.323 13.5304 182.689 12.2382 181.501 11.2678L179.856 13.2814ZM192.595 59.4072L192.343 58.7482L189.914 59.6771L190.167 60.3362L192.595 59.4072ZM192.429 59.2127V58.7001H189.829V59.2127H192.429ZM191.983 57.7199C192.292 57.9899 192.345 58.3275 192.345 58.4804H189.745C189.745 58.8285 189.853 59.3126 190.275 59.6802L191.983 57.7199ZM192.345 58.4804V58.4072H189.745V58.4804H192.345ZM192.327 58.6175L192.411 58.1049L189.846 57.6843L189.762 58.1968L192.327 58.6175ZM192.429 57.8946V57.6017H189.829V57.8946H192.429ZM191.983 58.5818C192.373 58.2415 192.597 57.7642 192.597 57.2355H189.997C189.997 57.1387 190.016 57.0186 190.073 56.8945C190.13 56.771 190.207 56.6808 190.275 56.6215L191.983 58.5818ZM192.597 57.2355C192.597 57.3977 192.548 57.5209 192.508 57.5897C192.473 57.6504 192.451 57.6611 192.487 57.6299L190.779 55.6696C190.42 55.9823 189.997 56.5043 189.997 57.2355H192.597ZM192.933 56.6497C192.933 56.9682 192.801 57.1716 192.767 57.2223C192.724 57.2838 192.7 57.2975 192.739 57.2637L191.031 55.3035C190.902 55.4161 190.752 55.5641 190.625 55.7477C190.506 55.9204 190.333 56.2336 190.333 56.6497H192.933ZM191.885 57.5836H191.969V54.9836H191.885V57.5836ZM192.969 57.1141L211.878 34.3407L209.878 32.6798L190.969 55.4531L192.969 57.1141ZM210.878 32.2102H195.499V34.8102H210.878V32.2102ZM195.499 32.2102C194.617 32.2102 193.872 31.9443 193.212 31.4051L191.567 33.4186C192.7 34.3439 194.028 34.8102 195.499 34.8102V32.2102ZM193.243 31.4317C192.596 30.8679 192.345 30.2845 192.345 29.6292H189.745C189.745 31.122 190.389 32.3937 191.535 33.392L193.243 31.4317ZM192.345 29.6292C192.345 28.979 192.591 28.434 193.212 27.9267L191.567 25.9131C190.395 26.8703 189.745 28.1316 189.745 29.6292H192.345ZM193.243 27.9C193.906 27.3228 194.64 27.0483 195.499 27.0483V24.4483C194.005 24.4483 192.666 24.9548 191.535 25.9397L193.243 27.9ZM195.499 27.0483H219.786V24.4483H195.499V27.0483ZM219.599 27.0348L220.104 27.108L220.477 24.535L219.973 24.4618L219.599 27.0348ZM220.291 27.1215H220.711V24.5215H220.291V27.1215ZM220.711 27.1215C220.741 27.1215 220.71 27.1244 220.644 27.11C220.592 27.0987 220.396 27.0516 220.193 26.8748L221.901 24.9146C221.642 24.689 221.362 24.6053 221.198 24.5696C221.019 24.5307 220.849 24.5215 220.711 24.5215V27.1215ZM220.528 27.0865C220.758 27.187 221.026 27.2572 221.274 27.3114L221.828 24.771C221.736 24.751 221.668 24.7336 221.62 24.7195C221.568 24.7046 221.555 24.6979 221.566 24.7029L220.528 27.0865ZM220.519 26.8311C220.598 26.935 220.708 27.0673 220.844 27.1861C220.923 27.2547 221.271 27.5608 221.803 27.5608V24.9608C222.067 24.9608 222.262 25.0445 222.358 25.095C222.46 25.148 222.525 25.2021 222.552 25.2258C222.605 25.2714 222.616 25.2938 222.584 25.2512L220.519 26.8311ZM221.224 27.4246L221.812 27.7175L222.971 25.39L222.383 25.0971L221.224 27.4246ZM222.392 27.8537C222.288 27.8537 221.967 27.835 221.664 27.5705C221.326 27.2762 221.26 26.9019 221.26 26.7002H223.86C223.86 26.4008 223.765 25.9534 223.372 25.6102C223.012 25.2969 222.607 25.2537 222.392 25.2537V27.8537ZM221.706 27.6803L222.126 28.0464L223.834 26.0862L223.414 25.7201L221.706 27.6803ZM222.98 28.3663C222.527 28.3663 222.262 28.115 222.19 28.0371C222.116 27.9557 222.105 27.9096 222.135 27.9748L224.497 26.8901C224.415 26.7112 224.292 26.482 224.105 26.2786C223.922 26.0787 223.545 25.7663 222.98 25.7663V28.3663ZM222.331 28.2805C222.454 28.4234 222.611 28.5844 222.804 28.7186C222.985 28.8449 223.308 29.0254 223.736 29.0254V26.4254C224.052 26.4254 224.249 26.5571 224.291 26.5857C224.343 26.6222 224.346 26.6368 224.301 26.5844L222.331 28.2805ZM222.522 28.1899C222.599 28.3912 222.648 28.5362 222.676 28.6331C222.689 28.6811 222.695 28.7055 222.696 28.711C222.698 28.7228 222.688 28.6803 222.688 28.6041H225.288C225.288 28.3384 225.222 28.0816 225.175 27.916C225.119 27.7201 225.041 27.4989 224.95 27.2609L222.522 28.1899ZM222.688 28.6041C222.688 29.2378 223.056 29.6622 223.302 29.8771L225.01 27.9169C225.033 27.9365 225.288 28.1656 225.288 28.6041H222.688ZM222.856 28.897V29.3363H225.456V28.897H222.856ZM222.907 29.6948L222.991 29.9877L225.49 29.2708L225.406 28.9779L222.907 29.6948ZM222.94 29.6292V29.7025H225.54V29.6292H222.94ZM222.973 29.4117L222.889 29.7778L225.423 30.3594L225.508 29.9933L222.973 29.4117ZM222.856 30.0686C222.856 30.171 222.848 30.232 222.842 30.2607C222.836 30.2891 222.836 30.2708 222.861 30.2271L225.116 31.5211C225.385 31.0526 225.456 30.5292 225.456 30.0686H222.856ZM222.688 30.8741C222.688 30.791 222.706 30.5899 222.855 30.3748C223.012 30.1459 223.224 30.0352 223.374 29.9918L224.099 32.4886C224.416 32.3964 224.754 32.2003 224.996 31.8494C225.228 31.5122 225.288 31.1524 225.288 30.8741H222.688ZM222.436 31.2402V31.4599H225.036V31.2402H222.436ZM222.882 30.4798L222.462 30.8459L224.17 32.8061L224.59 32.44L222.882 30.4798ZM222.016 31.826V31.8993H224.616V31.826H222.016ZM222.319 31.065L203.326 53.7652L205.32 55.4336L224.313 32.7335L222.319 31.065ZM204.323 55.8994H219.786V53.2994H204.323V55.8994ZM219.786 55.8994C220.645 55.8994 221.379 56.1739 222.042 56.7512L223.75 54.7909C222.619 53.806 221.28 53.2994 219.786 53.2994V55.8994ZM222.073 56.7778C222.694 57.2851 222.94 57.8301 222.94 58.4804H225.54C225.54 56.9827 224.89 55.7214 223.718 54.7642L222.073 56.7778ZM222.94 58.4804C222.94 59.1357 222.689 59.719 222.042 60.2829L223.75 62.2431C224.896 61.2448 225.54 59.9731 225.54 58.4804H222.94ZM222.073 60.2562C221.413 60.7955 220.669 61.0614 219.786 61.0614V63.6614C221.257 63.6614 222.586 63.1951 223.718 62.2698L222.073 60.2562ZM219.786 61.0614H195.499V63.6614H219.786V61.0614ZM195.499 61.0614C195.217 61.0614 195.037 61.0401 194.935 61.0179L194.382 63.5584C194.728 63.6338 195.108 63.6614 195.499 63.6614V61.0614ZM194.658 60.9882H194.406V63.5882H194.658V60.9882ZM194.925 61.0964C194.686 60.992 194.304 60.8417 193.902 60.8417V63.4417C193.869 63.4417 193.842 63.4399 193.821 63.4379C193.801 63.4359 193.784 63.4335 193.773 63.4316C193.752 63.4279 193.743 63.4249 193.749 63.4267C193.755 63.4284 193.77 63.4329 193.794 63.4419C193.818 63.4509 193.849 63.4633 193.887 63.48L194.925 61.0964ZM194.421 60.9499L193.749 60.657L192.71 63.0406L193.383 63.3335L194.421 60.9499ZM194.084 60.8687C194.018 60.8114 194.008 60.7974 194.026 60.8176C194.034 60.8267 194.075 60.8748 194.121 60.9546C194.145 60.9963 194.18 61.0638 194.211 61.1533C194.241 61.2406 194.278 61.38 194.278 61.5559H191.678C191.678 61.9056 191.814 62.1588 191.866 62.2487C191.933 62.3652 192.005 62.4559 192.055 62.5138C192.157 62.6316 192.273 62.7397 192.376 62.8289L194.084 60.8687ZM192.978 60.2559C193.087 60.2559 193.169 60.2768 193.216 60.2926C193.262 60.3082 193.283 60.3217 193.276 60.3179C193.271 60.3144 193.249 60.3002 193.21 60.2681C193.172 60.2364 193.123 60.192 193.064 60.1316L191.21 61.955C191.422 62.1704 191.66 62.3775 191.922 62.5376C192.177 62.6932 192.54 62.8559 192.978 62.8559V60.2559ZM193.122 60.1952C193.051 60.1122 192.994 60.0418 192.949 59.9833C192.904 59.924 192.876 59.8833 192.861 59.8592C192.844 59.8322 192.853 59.8421 192.869 59.8825C192.878 59.9042 192.893 59.9436 192.906 59.9981C192.918 60.0518 192.933 60.1341 192.933 60.2378H190.333C190.333 60.7097 190.562 61.0877 190.657 61.2388C190.791 61.4522 190.964 61.6731 191.152 61.8914L193.122 60.1952ZM191.995 58.9894C192.145 59.0328 192.357 59.1435 192.514 59.3724C192.663 59.5876 192.681 59.7886 192.681 59.8717H190.081C190.081 60.15 190.141 60.5098 190.373 60.847C190.615 61.1979 190.953 61.394 191.27 61.4862L191.995 58.9894ZM234.24 59.4072L233.988 58.7482L231.559 59.6771L231.811 60.3362L234.24 59.4072ZM234.073 59.2127V58.7001H231.473V59.2127H234.073ZM233.628 57.7199C233.937 57.9897 233.989 58.3272 233.989 58.4804H231.389C231.389 58.8288 231.498 59.3128 231.919 59.6802L233.628 57.7199ZM233.989 58.4804V58.4072H231.389V58.4804H233.989ZM233.972 58.6175L234.056 58.105L231.491 57.6842L231.407 58.1968L233.972 58.6175ZM234.073 57.8946V57.6017H231.473V57.8946H234.073ZM233.628 58.5818C234.018 58.2414 234.242 57.7641 234.242 57.2355H231.642C231.642 57.1388 231.661 57.0187 231.718 56.8946C231.775 56.771 231.851 56.6808 231.919 56.6215L233.628 58.5818ZM234.242 57.2355C234.242 57.3977 234.193 57.5209 234.153 57.5897C234.118 57.6504 234.096 57.6611 234.132 57.6299L232.424 55.6696C232.065 55.9823 231.642 56.5043 231.642 57.2355H234.242ZM234.578 56.6497C234.578 56.9682 234.446 57.1717 234.411 57.2223C234.369 57.2838 234.345 57.2975 234.384 57.2637L232.676 55.3035C232.547 55.4161 232.397 55.5641 232.27 55.7476C232.151 55.9203 231.978 56.2336 231.978 56.6497H234.578ZM233.53 57.5836H233.614V54.9836H233.53V57.5836ZM234.614 57.1141L253.523 34.3407L251.523 32.6798L232.614 55.4531L234.614 57.1141ZM252.523 32.2102H237.144V34.8102H252.523V32.2102ZM237.144 32.2102C236.261 32.2102 235.517 31.9443 234.857 31.4051L233.212 33.4186C234.344 34.3439 235.673 34.8102 237.144 34.8102V32.2102ZM234.888 31.4317C234.241 30.8679 233.989 30.2845 233.989 29.6292H231.389C231.389 31.122 232.034 32.3937 233.18 33.392L234.888 31.4317ZM233.989 29.6292C233.989 28.979 234.235 28.434 234.857 27.9267L233.212 25.9131C232.04 26.8703 231.389 28.1316 231.389 29.6292H233.989ZM234.888 27.9C235.551 27.3228 236.285 27.0483 237.144 27.0483V24.4483C235.649 24.4483 234.31 24.9548 233.18 25.9397L234.888 27.9ZM237.144 27.0483H261.431V24.4483H237.144V27.0483ZM261.244 27.0348L261.749 27.108L262.122 24.535L261.618 24.4618L261.244 27.0348ZM261.935 27.1215H262.356V24.5215H261.935V27.1215ZM262.356 27.1215C262.385 27.1215 262.355 27.1244 262.289 27.11C262.237 27.0987 262.041 27.0516 261.838 26.8748L263.546 24.9146C263.287 24.689 263.006 24.6053 262.842 24.5696C262.664 24.5307 262.494 24.5215 262.356 24.5215V27.1215ZM262.173 27.0865C262.403 27.1871 262.671 27.2573 262.919 27.3114L263.473 24.771C263.381 24.751 263.313 24.7336 263.264 24.7195C263.213 24.7046 263.2 24.6979 263.211 24.7029L262.173 27.0865ZM262.164 26.8311C262.243 26.935 262.353 27.0673 262.489 27.1861C262.568 27.2547 262.916 27.5608 263.448 27.5608V24.9608C263.712 24.9608 263.907 25.0445 264.003 25.095C264.104 25.148 264.17 25.2021 264.197 25.2258C264.249 25.2714 264.261 25.2938 264.228 25.2512L262.164 26.8311ZM262.869 27.4246L263.457 27.7175L264.616 25.39L264.028 25.0971L262.869 27.4246ZM264.036 27.8537C263.933 27.8537 263.612 27.835 263.308 27.5705C262.971 27.2761 262.905 26.9019 262.905 26.7002H265.505C265.505 26.4009 265.41 25.9534 265.017 25.6103C264.657 25.2969 264.252 25.2537 264.036 25.2537V27.8537ZM263.35 27.6803L263.771 28.0465L265.479 26.0862L265.059 25.7201L263.35 27.6803ZM264.625 28.3663C264.172 28.3663 263.907 28.1149 263.835 28.0371C263.76 27.9557 263.749 27.9096 263.779 27.9748L266.142 26.8901C266.06 26.7113 265.937 26.4821 265.75 26.2786C265.567 26.0787 265.189 25.7663 264.625 25.7663V28.3663ZM263.976 28.2805C264.099 28.4234 264.256 28.5844 264.449 28.7186C264.63 28.8449 264.953 29.0254 265.381 29.0254V26.4254C265.697 26.4254 265.894 26.5571 265.935 26.5857C265.988 26.6222 265.991 26.6368 265.946 26.5844L263.976 28.2805ZM264.167 28.1899C264.244 28.3912 264.293 28.5362 264.321 28.6331C264.334 28.6812 264.34 28.7055 264.341 28.7111C264.343 28.7228 264.333 28.6803 264.333 28.6041H266.933C266.933 28.3384 266.867 28.0816 266.82 27.916C266.764 27.7201 266.686 27.4988 266.595 27.2609L264.167 28.1899ZM264.333 28.6041C264.333 29.2378 264.701 29.6621 264.947 29.8771L266.655 27.9169C266.678 27.9366 266.933 28.1657 266.933 28.6041H264.333ZM264.501 28.897V29.3363H267.101V28.897H264.501ZM264.552 29.6948L264.636 29.9877L267.135 29.2708L267.051 28.9779L264.552 29.6948ZM264.585 29.6292V29.7025H267.185V29.6292H264.585ZM264.618 29.4117L264.534 29.7778L267.068 30.3594L267.152 29.9933L264.618 29.4117ZM264.501 30.0686C264.501 30.171 264.493 30.232 264.487 30.2607C264.481 30.2891 264.481 30.2708 264.506 30.2271L266.761 31.5211C267.03 31.0525 267.101 30.5291 267.101 30.0686H264.501ZM264.333 30.8741C264.333 30.791 264.351 30.5899 264.499 30.3747C264.657 30.1458 264.869 30.0352 265.018 29.9918L265.744 32.4886C266.061 32.3964 266.399 32.2004 266.641 31.8494C266.873 31.5122 266.933 31.1525 266.933 30.8741H264.333ZM264.081 31.2402V31.4599H266.681V31.2402H264.081ZM264.527 30.4798L264.107 30.8459L265.815 32.8061L266.235 32.44L264.527 30.4798ZM263.661 31.826V31.8993H266.261V31.826H263.661ZM263.964 31.065L244.971 53.7652L246.965 55.4336L265.958 32.7335L263.964 31.065ZM245.968 55.8994H261.431V53.2994H245.968V55.8994ZM261.431 55.8994C262.29 55.8994 263.024 56.1739 263.687 56.7512L265.395 54.7909C264.264 53.806 262.925 53.2994 261.431 53.2994V55.8994ZM263.718 56.7778C264.339 57.2851 264.585 57.8301 264.585 58.4804H267.185C267.185 56.9827 266.535 55.7214 265.363 54.7642L263.718 56.7778ZM264.585 58.4804C264.585 59.1357 264.334 59.719 263.687 60.2829L265.395 62.2431C266.54 61.2448 267.185 59.9731 267.185 58.4804H264.585ZM263.718 60.2562C263.058 60.7955 262.313 61.0614 261.431 61.0614V63.6614C262.902 63.6614 264.23 63.1951 265.363 62.2698L263.718 60.2562ZM261.431 61.0614H237.144V63.6614H261.431V61.0614ZM237.144 61.0614C236.862 61.0614 236.682 61.0401 236.58 61.0179L236.026 63.5584C236.373 63.6338 236.753 63.6614 237.144 63.6614V61.0614ZM236.303 60.9882H236.051V63.5882H236.303V60.9882ZM236.57 61.0964C236.331 60.992 235.949 60.8417 235.547 60.8417V63.4417C235.514 63.4417 235.487 63.4399 235.466 63.4379C235.445 63.4359 235.429 63.4335 235.418 63.4316C235.397 63.4279 235.388 63.4249 235.394 63.4267C235.4 63.4284 235.414 63.4329 235.439 63.4419C235.463 63.4509 235.494 63.4633 235.532 63.48L236.57 61.0964ZM236.066 60.9499L235.394 60.657L234.355 63.0406L235.028 63.3335L236.066 60.9499ZM235.729 60.8687C235.663 60.8114 235.653 60.7974 235.671 60.8176C235.678 60.8267 235.72 60.8747 235.766 60.9546C235.79 60.9962 235.825 61.0637 235.855 61.1532C235.886 61.2406 235.922 61.38 235.922 61.5559H233.322C233.322 61.9056 233.459 62.1588 233.511 62.2487C233.577 62.3652 233.65 62.4559 233.7 62.5138C233.802 62.6317 233.918 62.7397 234.02 62.8289L235.729 60.8687ZM234.622 60.2559C234.732 60.2559 234.814 60.2768 234.861 60.2926C234.907 60.3082 234.927 60.3217 234.921 60.3179C234.915 60.3144 234.893 60.3002 234.855 60.2681C234.817 60.2364 234.768 60.192 234.709 60.1316L232.855 61.955C233.067 62.1704 233.305 62.3775 233.567 62.5376C233.822 62.6932 234.185 62.8559 234.622 62.8559V60.2559ZM234.767 60.1952C234.696 60.1122 234.639 60.0418 234.594 59.9833C234.548 59.924 234.521 59.8833 234.506 59.8592C234.489 59.8322 234.498 59.8421 234.514 59.8825C234.523 59.9042 234.538 59.9436 234.55 59.9981C234.563 60.0518 234.578 60.1341 234.578 60.2378H231.978C231.978 60.7097 232.207 61.0877 232.302 61.2388C232.435 61.4522 232.609 61.6731 232.797 61.8914L234.767 60.1952ZM233.64 58.9894C233.79 59.0328 234.002 59.1435 234.159 59.3724C234.308 59.5876 234.326 59.7886 234.326 59.8717H231.726C231.726 60.15 231.786 60.5098 232.018 60.847C232.26 61.1979 232.598 61.394 232.915 61.4862L233.64 58.9894ZM291.099 61.0614C285.74 61.0614 281.3 59.3846 277.693 56.06L275.931 57.9717C280.056 61.7744 285.141 63.6614 291.099 63.6614V61.0614ZM277.7 56.0665C274.142 52.7382 272.398 48.7815 272.398 44.128H269.798C269.798 49.531 271.863 54.1662 275.924 57.9653L277.7 56.0665ZM272.398 44.128C272.398 39.4219 274.145 35.4419 277.7 32.1164L275.924 30.2176C271.86 34.0194 269.798 38.6801 269.798 44.128H272.398ZM277.7 32.1168C281.307 28.7459 285.745 27.0483 291.099 27.0483V24.4483C285.136 24.4483 280.049 26.3631 275.925 30.2172L277.7 32.1168ZM291.099 27.0483C294.829 27.0483 298.319 28.0514 301.593 30.0759L302.96 27.8645C299.287 25.5931 295.325 24.4483 291.099 24.4483V27.0483ZM303.521 29.3461C303.72 28.6876 304.087 28.1631 304.651 27.7418L303.095 25.6586C302.091 26.4089 301.393 27.3978 301.032 28.5944L303.521 29.3461ZM304.691 27.7108C305.218 27.2843 305.873 27.0483 306.731 27.0483V24.4483C305.347 24.4483 304.097 24.8468 303.056 25.6896L304.691 27.7108ZM306.731 27.0483C307.588 27.0483 308.278 27.3208 308.871 27.8721L310.641 25.9676C309.553 24.9568 308.226 24.4483 306.731 24.4483V27.0483ZM308.902 27.9C309.549 28.4639 309.801 29.0472 309.801 29.7025H312.401C312.401 28.2098 311.756 26.9381 310.61 25.9397L308.902 27.9ZM309.801 29.7025V58.4804H312.401V29.7025H309.801ZM309.801 58.4804C309.801 59.1357 309.549 59.719 308.902 60.2829L310.61 62.2431C311.756 61.2448 312.401 59.9731 312.401 58.4804H309.801ZM308.902 60.2829C308.312 60.7967 307.612 61.0614 306.731 61.0614V63.6614C308.202 63.6614 309.519 63.1938 310.61 62.2431L308.902 60.2829ZM306.731 61.0614C305.848 61.0614 305.179 60.8355 304.651 60.4411L303.095 62.5242C304.136 63.3015 305.372 63.6614 306.731 63.6614V61.0614ZM304.651 60.4411C304.087 60.0198 303.72 59.4953 303.521 58.8368L301.032 59.5885C301.393 60.7851 302.091 61.774 303.095 62.5242L304.651 60.4411ZM301.596 58.1049C298.384 60.0776 294.894 61.0614 291.099 61.0614V63.6614C295.372 63.6614 299.333 62.546 302.957 60.3204L301.596 58.1049ZM278.79 44.128C278.79 47.3917 279.928 50.1928 282.2 52.4467L284.031 50.6011C282.268 48.852 281.39 46.7225 281.39 44.128H278.79ZM282.212 52.4591C284.555 54.7209 287.524 55.8262 291.015 55.8262V53.2262C288.119 53.2262 285.822 52.33 284.018 50.5887L282.212 52.4591ZM291.015 55.8262C294.555 55.8262 297.555 54.7252 299.902 52.4591L298.096 50.5887C296.297 52.3257 293.974 53.2262 291.015 53.2262V55.8262ZM299.889 52.4711C302.28 50.2232 303.492 47.4148 303.492 44.128H300.892C300.892 46.6994 299.975 48.8216 298.108 50.5767L299.889 52.4711ZM303.492 44.128C303.492 40.8421 302.282 38.0154 299.901 35.7226L298.097 37.5953C299.974 39.4032 300.892 41.5559 300.892 44.128H303.492ZM299.901 35.7226C297.509 33.4191 294.515 32.2835 291.015 32.2835V34.8835C293.902 34.8835 296.231 35.7981 298.097 37.5953L299.901 35.7226ZM291.015 32.2835C287.564 32.2835 284.621 33.4242 282.285 35.7347L284.114 37.5832C285.923 35.7931 288.191 34.8835 291.015 34.8835V32.2835ZM282.296 35.7237C279.96 37.9793 278.79 40.8107 278.79 44.128H281.39C281.39 41.4896 282.292 39.3417 284.102 37.5942L282.296 35.7237ZM323.653 58.3339V15.1305H321.053V58.3339H323.653ZM323.653 15.1305C323.653 14.4079 323.92 13.8055 324.552 13.2548L322.844 11.2945C321.683 12.3059 321.053 13.6074 321.053 15.1305H323.653ZM324.552 13.2548C325.191 12.6979 325.972 12.403 326.975 12.403V9.80301C325.401 9.80301 323.997 10.2892 322.844 11.2945L324.552 13.2548ZM326.975 12.403H336.892V9.80301H326.975V12.403ZM336.892 12.403C344.723 12.403 351.33 14.8167 356.791 19.6213L358.509 17.6693C352.54 12.4175 345.309 9.80301 336.892 9.80301V12.403ZM356.796 19.6254C362.25 24.3777 364.922 30.0586 364.922 36.7322H367.522C367.522 29.2487 364.479 22.8717 358.504 17.6652L356.796 19.6254ZM364.922 36.7322C364.922 43.4065 362.249 49.1139 356.791 53.9163L358.509 55.8683C364.48 50.6143 367.522 44.215 367.522 36.7322H364.922ZM356.796 53.9122C351.336 58.6698 344.726 61.0614 336.892 61.0614V63.6614C345.305 63.6614 352.535 61.0736 358.504 55.8724L356.796 53.9122ZM336.892 61.0614H326.975V63.6614H336.892V61.0614ZM326.975 61.0614C325.972 61.0614 325.191 60.7665 324.552 60.2096L322.844 62.1699C323.997 63.1752 325.401 63.6614 326.975 63.6614V61.0614ZM324.552 60.2096C323.92 59.6589 323.653 59.0565 323.653 58.3339H321.053C321.053 59.857 321.683 61.1585 322.844 62.1699L324.552 60.2096ZM330.381 19.2311V54.2333H332.981V19.2311H330.381ZM331.681 55.5333H336.892V52.9333H331.681V55.5333ZM336.903 55.5332C342.733 55.4819 347.745 53.6769 351.865 50.0876L350.157 48.1273C346.544 51.2748 342.144 52.887 336.88 52.9333L336.903 55.5332ZM351.865 50.0876C356.045 46.4448 358.193 41.9722 358.193 36.7322H355.593C355.593 41.158 353.82 44.9357 350.157 48.1273L351.865 50.0876ZM358.193 36.7322C358.193 31.4922 356.045 27.0196 351.865 23.3768L350.157 25.3371C353.82 28.5287 355.593 32.3063 355.593 36.7322H358.193ZM351.872 23.3829C347.75 19.7392 342.73 17.9311 336.892 17.9311V20.5311C342.147 20.5311 346.54 22.1403 350.15 25.331L351.872 23.3829ZM336.892 17.9311H331.681V20.5311H336.892V17.9311ZM409.671 59.2823L405.553 49.7629L403.167 50.7952L407.285 60.3146L409.671 59.2823ZM404.36 48.979H383.939V51.579H404.36V48.979ZM382.745 49.7629L378.627 59.2823L381.014 60.3146L385.132 50.7952L382.745 49.7629ZM378.639 59.2561C378.335 59.9175 377.952 60.3452 377.516 60.617C377.076 60.8909 376.492 61.0614 375.703 61.0614V63.6614C376.874 63.6614 377.957 63.4047 378.89 62.8243C379.826 62.2418 380.521 61.3881 381.002 60.3408L378.639 59.2561ZM375.703 61.0614C374.069 61.0614 373.162 60.573 372.641 59.8462L370.528 61.3617C371.688 62.9781 373.526 63.6614 375.703 63.6614V61.0614ZM372.655 59.8667C372.036 58.9677 371.96 58.1764 372.289 57.3494L369.872 56.3894C369.192 58.1009 369.452 59.7994 370.514 61.3412L372.655 59.8667ZM372.274 57.3836L390.847 14.2533L388.459 13.225L369.886 56.3552L372.274 57.3836ZM390.815 14.3225C391.094 13.7676 391.512 13.3082 392.105 12.939L390.731 10.7316C389.756 11.3387 388.997 12.1485 388.491 13.1558L390.815 14.3225ZM392.071 12.9594C392.698 12.5952 393.345 12.4389 394.041 12.4745L394.174 9.87794C392.965 9.81597 391.819 10.099 390.765 10.7112L392.071 12.9594ZM394.167 12.4749C395.044 12.4346 395.689 12.594 396.169 12.8705C396.643 13.1433 397.057 13.5865 397.383 14.2876L399.74 13.1908C399.226 12.0856 398.477 11.1985 397.466 10.617C396.462 10.0392 395.299 9.8202 394.048 9.8776L394.167 12.4749ZM397.368 14.2533L415.94 57.3836L418.328 56.3552L399.756 13.225L397.368 14.2533ZM415.926 57.3494C416.255 58.1764 416.179 58.9676 415.559 59.8667L417.701 61.3412C418.763 59.7994 419.023 58.1009 418.343 56.3894L415.926 57.3494ZM415.574 59.8462C415.059 60.5633 414.134 61.0614 412.428 61.0614V63.6614C414.644 63.6614 416.52 62.9879 417.687 61.3617L415.574 59.8462ZM412.428 61.0614C411.673 61.0614 411.126 60.8938 410.72 60.6301C410.315 60.3679 409.956 59.9497 409.674 59.2887L407.282 60.3082C407.729 61.3559 408.392 62.2191 409.304 62.8112C410.215 63.4018 411.279 63.6614 412.428 63.6614V61.0614ZM402.108 41.7082L395.301 25.9646L392.914 26.9965L399.721 42.7401L402.108 41.7082ZM392.914 25.9646L386.107 41.7082L388.493 42.7401L395.301 26.9965L392.914 25.9646ZM430.723 53.6488C425.425 48.7062 422.817 42.8447 422.817 35.9999H420.217C420.217 43.6051 423.154 50.1432 428.95 55.5499L430.723 53.6488ZM422.817 35.9999C422.817 29.1551 425.425 23.2936 430.723 18.351L428.95 16.4498C423.154 21.8566 420.217 28.3947 420.217 35.9999H422.817ZM430.719 18.3554C436.068 13.4146 442.555 10.9384 450.258 10.9384V8.33843C441.938 8.33843 434.81 11.0369 428.954 16.4454L430.719 18.3554ZM450.258 10.9384C457.954 10.9384 464.408 13.4581 469.7 18.4891L471.492 16.6046C465.691 11.091 458.586 8.33843 450.258 8.33843V10.9384ZM469.71 18.4977C475.07 23.4958 477.7 29.3354 477.7 36.0731H480.3C480.3 28.5561 477.327 22.0448 471.483 16.596L469.71 18.4977ZM477.7 36.0731C477.7 42.8056 475.047 48.6174 469.635 53.5668L471.389 55.4855C477.294 50.0855 480.3 43.5953 480.3 36.0731H477.7ZM469.608 53.5921C467.217 55.9062 464.338 57.7462 460.952 59.1044L461.92 61.5176C465.592 60.0444 468.764 58.0277 471.416 55.4601L469.608 53.5921ZM460.966 59.0987C457.587 60.4072 454.077 61.0613 450.426 61.0613V63.6613C454.396 63.6613 458.225 62.9485 461.905 61.5233L460.966 59.0987ZM450.426 61.0613C442.606 61.0613 436.064 58.5818 430.719 53.6443L428.954 55.5543C434.814 60.9662 441.999 63.6613 450.426 63.6613V61.0613ZM429.797 35.9999C429.797 41.3064 431.835 45.8886 435.833 49.684L437.623 47.7984C434.113 44.4665 432.397 40.5545 432.397 35.9999H429.797ZM435.839 49.6902C439.84 53.4366 444.671 55.3135 450.258 55.3135V52.7135C445.313 52.7135 441.123 51.0756 437.616 47.7923L435.839 49.6902ZM450.258 55.3135C455.904 55.3135 460.741 53.4105 464.691 49.6041L462.887 47.732C459.441 51.0529 455.258 52.7135 450.258 52.7135V55.3135ZM464.69 49.6047C468.677 45.7684 470.719 41.2157 470.719 35.9999H468.119C468.119 40.4499 466.408 44.3426 462.887 47.7313L464.69 49.6047ZM470.719 35.9999C470.719 30.7899 468.709 26.2605 464.775 22.4689L462.971 24.341C466.432 27.6768 468.119 31.544 468.119 35.9999H470.719ZM464.781 22.4751C460.83 18.6148 455.961 16.6862 450.258 16.6862V19.2862C455.313 19.2862 459.52 20.9701 462.964 24.3349L464.781 22.4751ZM450.258 16.6862C444.613 16.6862 439.752 18.5888 435.749 22.3889L437.539 24.2745C441.044 20.9473 445.258 19.2862 450.258 19.2862V16.6862ZM435.748 22.3895C431.802 26.1402 429.797 30.6994 429.797 35.9999H432.397C432.397 31.4392 434.09 27.553 437.539 24.274L435.748 22.3895ZM387.3 43.5242H394.107V40.9242H387.3V43.5242ZM394.107 43.5242H400.915V40.9242H394.107V43.5242Z" fill="black" mask="url(#path-2-outside-1_1024:3544)"/>
</svg>
