<svg width="673" height="646" viewBox="0 0 673 646" fill="none" xmlns="http://www.w3.org/2000/svg">
<g id="graphic" clip-path="url(#clip0_5803_3851)">
<g id="white">
<path id="Vector" d="M305.28 188.452C320.797 240.483 327.447 231.616 285.777 234.107C265.254 238.167 251.43 253.51 236.162 219.337C220.868 185.164 218.477 148.276 243.061 142.024C262.165 133.481 294.57 152.61 305.28 188.477V188.452Z" fill="white"/>
<path id="Vector_2" d="M367.541 164.441C374.216 187.182 378.799 200.607 377.927 205.215C376.856 210.769 367.615 205.215 341.961 210.495C321.511 214.704 313.118 228.229 298.422 195.326C283.702 162.424 287.264 128.848 306.343 120.33C325.447 111.787 357.378 129.845 367.541 164.466V164.441Z" fill="white"/>
<path id="Vector_3" d="M418.081 146.881C423.984 167.031 428.069 178.912 427.272 182.997C426.326 187.904 418.131 182.997 395.416 187.68C377.308 191.416 369.861 203.396 356.834 174.255C343.807 145.113 346.946 115.348 363.858 107.801C380.77 100.254 409.09 116.245 418.081 146.906V146.881Z" fill="white"/>
<path id="Vector_4" d="M96.4498 299.339L91.3438 331.146L227.114 439.419L362.088 373.339L367.617 339.963L235.409 245.738L96.4498 299.314V299.339Z" fill="white" stroke="white" stroke-width="0.996299" stroke-miterlimit="10"/>
<path id="Vector_5" d="M275.572 501.614C276.793 500.842 278.063 500.194 279.283 499.472C280.778 498.774 280.554 498.824 278.636 499.646C279.134 499.447 279.632 499.248 280.13 499.073C282.671 498.177 285.261 497.579 287.926 497.18C291.364 496.682 295.174 493.17 296.868 490.306C298.736 487.093 299.533 482.385 298.363 478.799C297.192 475.212 294.95 471.7 291.488 469.857C287.702 467.864 284.19 467.74 279.981 468.362C273.106 469.384 266.332 472.074 260.453 475.785C253.853 479.969 250.615 489.285 255.098 496.234C259.582 503.183 268.474 506.072 275.547 501.589L275.572 501.614Z" fill="white"/>
<path id="Vector_6" d="M387.873 435.882C386.827 443.902 390.165 452.346 387.525 460.092C384.436 469.208 398.858 473.144 401.946 464.077C405.035 455.011 401.597 445.372 402.818 435.882C403.341 431.847 399.007 428.46 395.346 428.41C390.887 428.36 388.396 431.897 387.873 435.882Z" fill="white"/>
<path id="Vector_7" d="M366.755 474.963C376.917 491.676 383.817 510.331 391.538 528.265C393.057 531.777 398.213 528.738 396.694 525.251C388.973 507.318 382.073 488.662 371.911 471.949C369.918 468.661 364.738 471.675 366.755 474.963Z" fill="white"/>
<path id="Vector_8" d="M38.1014 285.018C39.4464 277.097 55.3622 266.686 61.2653 261.655C69.3104 254.755 77.4053 247.109 87.6423 243.697C105.8 237.619 98.0038 208.751 79.6968 214.879C64.2293 220.059 52.3484 230.047 40.1438 240.533C29.2094 249.898 11.8738 261.954 9.30833 277.097C6.12017 295.903 34.9381 303.998 38.1263 285.043L38.1014 285.018Z" fill="white"/>
<path id="Vector_9" d="M441.612 241.254C453.045 242.475 463.332 238.041 472.174 231.216C478.401 226.409 477.604 215.076 472.174 210.07C465.573 204.018 457.678 204.939 451.027 210.07C453.717 207.978 449.359 210.767 448.736 211.066C451.077 209.945 448.736 210.967 447.59 211.266C446.992 211.44 446.37 211.564 445.747 211.664C444.626 211.863 444.925 211.814 446.594 211.515C444.925 211.39 443.256 211.515 441.587 211.365C433.791 210.543 426.319 218.837 426.643 226.31C427.041 235.127 433.243 240.358 441.587 241.254H441.612Z" fill="white"/>
<path id="Vector_10" d="M528.107 112.981C521.482 127.851 510.024 133.68 502.402 148.126C499.812 153.033 496.126 163.295 495.03 168.55C486.237 165.013 471.642 166.433 471.542 178.812C471.418 193.408 468.254 217.12 483.747 225.638C492.165 230.271 502.477 229.424 509.9 224.492C526.787 237.245 557.498 229.449 575.008 221.229C584.398 214.953 590.276 199.336 599.019 196.695C611.821 192.81 621.211 190.095 624.374 164.415" fill="white"/>
<path id="Vector_11" d="M528.109 112.982C528.109 112.982 570.726 88.7965 588.361 110.64C588.361 110.64 606.917 110.217 611.151 118.86C611.151 118.86 634.39 143.917 624.377 164.391" fill="white"/>
</g>
<g id="yellow">
<path id="Vector_12" d="M422.381 263.62C419.716 259.834 411.322 251.34 406.714 251.764C398.32 242.672 412.891 231.09 422.381 222.971C431.895 215 436.155 197.939 429.878 187.303C424.274 177.788 374.807 187.004 380.187 206.905C351.394 208.723 325.715 212.136 318.591 231.464C290.695 228.699 274.704 237.766 254.43 254.703C284.767 278.639 317.246 308.154 351.22 326.635C376.8 340.633 366.987 348.479 364.745 362.552C362.503 370.821 366.414 373.785 326.412 391.295C314.108 396.625 296.175 406.912 302.252 406.912C318.492 422.031 296.399 455.382 314.656 458.097C330.497 471.223 340.983 447.91 353.985 432.667C360.212 454.51 372.591 448.084 380.287 437.025C388.407 387.808 385.493 403.749 391.769 403.898C426.117 410.15 395.157 357.82 417.474 349.7C440.488 328.703 446.068 290.395 442.307 277.244C437.475 267.754 431.347 261.801 422.331 263.644L422.381 263.62Z" fill="#F5D52B"/>
<path id="Vector_13" d="M344.986 126.206C348.049 118.659 356.717 108.422 364.837 107.176C386.93 103.963 371.263 92.6056 369.022 83.6638C368.872 83.1158 368.748 82.6924 368.598 82.269C324.711 95.5695 323.316 58.0589 306.529 59.0303C284.859 60.3006 243.911 65.6059 208.543 79.8778C173.174 94.0253 144.381 105.632 113.62 128.323L109.835 140.353C104.106 141.897 113.197 148.747 115.987 158.835C117.655 164.563 115.14 181.5 124.505 169.47C128.689 164.14 130.508 169.47 149.238 172.559C164.606 174.377 178.181 179.01 182.514 187.827C193.424 231.639 199.427 211.065 198.032 222.274C196.911 231.664 198.779 242.972 207.995 240.456C221.545 236.546 219.278 256.596 233.824 244.143C217.46 233.507 204.881 189.097 217.46 165.858C240.375 123.167 257.162 139.531 281.895 148.921C293.627 124.412 304.686 109.02 345.086 128.622" fill="#F3CD2D"/>
</g>
<g id="light_yelllow">
<path id="Vector_14" d="M428.836 185.909C421.19 181.252 407.042 184.265 398.574 186.731C390.105 189.197 382.583 195.499 378.747 203.444C377.527 206.034 380.092 205.013 377.626 206.807C373.94 209.397 365.198 207.105 360.689 206.408C348.111 204.216 334.86 213.581 325.819 222.623C321.859 226.583 320.813 229.049 315.756 231.241C311.099 233.283 306.64 231.764 301.584 231.639C290.226 231.515 275.356 237.841 265.244 243.321C260.188 246.061 254.708 251.391 257.049 256.746C257.996 258.788 259.914 260.308 261.707 261.678C268.831 266.883 275.929 272.089 283.053 277.295C286.615 279.885 290.425 282.625 294.959 282.774C303.427 283.173 309.305 274.704 312.469 266.883C314.66 261.404 317.948 254.704 323.826 254.978C326.417 255.127 328.758 256.746 331.074 258.116C338.173 262.226 347.065 262.898 354.737 260.158C362.383 257.419 371.649 251.789 374.538 244.243C376.456 239.311 376.207 232.536 380.441 229.672C385.647 226.11 390.703 229.074 397.004 229.896C406.843 230.992 417.105 226.209 422.584 217.99C427.915 209.497 432.747 194.029 428.911 185.959L428.836 185.909Z" fill="#FEE97A"/>
</g>
<g id="brown">
<path id="Vector_15" d="M63.1778 104.737C124.525 48.2714 207.268 12.9526 290.434 9.26629C302.763 8.69342 322.016 13.7995 331.929 22.3178C341.419 30.4127 355.865 46.0048 337.733 56.5158C329.812 61.1984 316.91 59.5047 307.844 59.3552C234.317 58.6578 174.963 89.4185 118.423 125.759L112.47 133.43C102.258 139.806 105.247 147.478 113.889 155.697C122.682 163.917 100.439 169.446 135.135 170.741C140.665 170.891 170.404 172.161 181.04 185.362C190.256 196.72 187.69 207.206 191.675 218.838C192.672 221.677 197.354 222.101 199.173 224.94C199.023 225.214 199.023 225.637 199.023 225.936C199.023 225.936 198.027 227.356 197.877 227.78C197.18 229.199 196.757 230.47 196.607 232.039C196.458 234.878 198.6 237.718 200.443 239.71C202.435 241.977 205.125 244.119 208.388 243.247C210.381 242.674 211.801 241.404 212.922 239.71C217.305 243.396 221.564 246.809 223.831 250.072C210.231 258.864 192.946 261.131 176.656 265.963C176.083 266.112 175.386 266.237 174.664 266.386C173.667 263.97 172.97 261.703 170.554 260.707C169.707 260.01 168.86 259.437 167.714 259.138C166.868 258.565 165.871 258.142 164.75 257.992C160.915 256 156.531 257.843 153.268 260.832L153.119 260.981C145.472 257.444 136.979 251.915 128.61 244.393C117.277 234.33 110.203 222.549 102.407 211.067C103.827 209.921 104.4 208.227 103.976 206.11C103.702 204.541 102.556 203.121 101.137 202.424C100.863 202.274 100.29 202 99.8665 201.851C99.1691 201.153 98.2973 200.581 97.3259 200.282C96.6285 199.709 95.7568 199.285 94.7854 198.862C94.2125 198.712 93.6645 198.588 92.9422 198.439C87.9856 192.486 80.9617 190.045 73.4646 184.939C55.058 172.46 39.5406 165.112 39.1172 146.805C39.1172 133.604 53.2895 113.903 63.2027 104.811L63.1778 104.737Z" fill="#DE9855"/>
</g>
<g id="red">
<path id="Vector_16" d="M231.452 454.264C253.296 442.233 268.066 456.082 273.296 464.501C254.167 472.695 232.822 499.844 223.93 512.373C245.275 515.511 265.251 520.916 283.334 529.459C299.723 540.394 291.977 556.359 286.074 562.96C306.847 591.952 294.717 617.906 286.074 627.246C278.427 638.18 261.938 643.212 254.666 644.333C157.053 622.489 180.391 482.359 206.171 464.476C216.283 455.957 225.748 452.844 231.427 454.214L231.452 454.264Z" fill="#FF0029"/>
<path id="Vector_17" d="M420.594 498.3C434.243 451.25 466.349 440.39 480.695 440.864C521.842 439.294 549.564 481.836 539.427 505.822C533.424 523.88 503.685 565.774 489.587 584.455C447.22 677.783 406.272 630.957 396.707 621.393C387.143 611.828 394.665 582.413 399.447 577.63C404.229 572.848 409.684 559.846 404.229 527.018C399.871 500.766 413.345 496.93 420.618 498.3H420.594Z" fill="#FF0029"/>
<g id="redtop">
<path id="Vector_18" d="M336.429 408.583C343.652 407.189 350.029 398.82 348.21 391.995C347.065 388.259 343.951 385.295 343.951 385.295L322.805 396.603C324.847 405.196 329.679 409.629 336.429 408.583Z" fill="#FF0029"/>
<path id="Vector_19" d="M318.964 63.0671C308.154 63.0671 307.133 60.9749 305.987 67.8494C304.543 76.4673 311.567 83.4414 318.665 83.4414C325.764 83.4414 333.958 78.5347 331.468 76.0439C323.298 67.8494 325.639 63.0671 318.964 63.0671Z" fill="#FF0029"/>
<path id="Vector_20" d="M318.804 293.262C310.086 300.411 313.673 297.596 325.28 306.712C333.848 313.462 331.905 313.686 335.318 311.046C340.424 307.061 338.182 298.069 337.211 296.799C333.773 290.697 324.458 288.629 318.829 293.262H318.804Z" fill="#FF0029"/>
<path id="Vector_21" d="M257.288 91.4371C257.288 84.6374 251.784 79.1328 244.984 79.1328C238.184 79.1328 232.68 84.6374 232.68 91.4371C232.68 98.2368 238.184 103.741 244.984 103.741C251.784 103.741 257.288 98.2368 257.288 91.4371Z" fill="#FF0029"/>
<path id="Vector_22" d="M160.329 136.396C152.782 136.396 146.68 142.225 146.68 149.398C146.68 156.572 152.807 162.4 160.329 162.4C167.851 162.4 173.978 156.572 173.978 149.398C173.978 142.225 167.851 136.396 160.329 136.396Z" fill="#FF0029"/>
<path id="Vector_23" d="M169.716 99.0082C158.931 103.591 159.703 101.599 160.5 106.306C161.695 113.33 171.384 116.045 173.103 115.771C180.65 115.771 187.35 107.925 185.806 100.054C183.415 87.8248 184.287 92.8063 169.691 99.0082H169.716Z" fill="#FF0029"/>
</g>
</g>
<g id="darkred">
<path id="Vector_24" d="M234.71 465.619C256.13 453.838 265.047 462.779 270.178 471.049C256.803 469.056 230.699 500.315 222.007 512.594H210.624C203.924 489.131 229.13 464.274 234.71 465.619Z" fill="#920017"/>
</g>
<path id="Vector_25" d="M191.955 251.49L186.052 246.509L182.914 250.245L188.817 255.226L191.955 251.49Z" fill="black"/>
<path id="Vector_26" d="M594.148 62.9158C592.081 62.567 590.237 55.9666 589.391 53.5007C588.519 51.9565 587.971 51.4832 586.601 51.1096C585.829 50.8854 584.384 50.5367 583.562 50.4122C582.865 50.2877 580.648 49.9639 579.926 49.9639C579.203 49.9639 578.606 50.2379 578.456 50.8854C576.713 57.2867 574.072 68.1214 572.229 78.8814C572.105 79.5788 572.628 80.2264 573.35 80.4257C574.845 80.8989 577.36 81.3473 578.805 81.5963C580.349 81.8703 583.114 82.3436 584.733 82.3934C585.58 82.4432 586.327 82.0696 586.352 81.0982C586.451 79.4543 586.501 76.2412 586.825 74.4479C587.124 72.7044 587.697 71.2847 588.569 71.459C591.558 71.9821 591.906 84.0622 599.852 85.4321C603.488 86.0548 604.833 83.2153 605.257 80.625C606.851 70.6371 607.698 62.0689 608.196 56.0413C608.221 55.3688 607.722 54.8706 607.025 54.6714C605.73 54.3227 603.364 53.8494 602.143 53.6502C600.948 53.4509 598.706 53.152 597.461 53.0275C596.564 53.0275 595.817 53.6502 595.891 54.4721C596.016 57.6105 595.518 63.1648 594.148 62.9407V62.9158Z" fill="black"/>
<path id="Vector_27" d="M559.81 32.0826C570.047 32.5559 577.046 29.4424 577.569 18.3835C578.067 7.44914 571.516 0.699218 561.279 0.225977C551.042 -0.19745 543.894 5.83016 543.396 16.7894C542.873 27.8733 549.622 31.6094 559.81 32.0826ZM560.806 10.9362C562.724 11.0358 563.645 13.9749 563.496 17.1631C563.346 20.2267 562.176 21.4222 560.308 21.3475C558.44 21.2728 557.394 19.9527 557.518 16.8891C557.668 13.676 558.863 10.8366 560.781 10.9362H560.806Z" fill="black"/>
<path id="Vector_28" d="M559.534 57.4867C562.473 57.6361 565.312 58.5826 568.127 60.4257C569.073 61.1481 570.069 60.8492 570.119 59.7283C570.219 57.0632 570.343 52.9037 570.294 50.2386C570.294 49.5163 569.82 48.9683 569.073 48.8936C566.732 48.6445 561.651 48.3456 557.117 48.0966C554.004 47.9471 547.827 47.6233 545.411 47.6731C544.738 47.6731 544.141 48.0467 544.066 48.7192C543.02 55.1454 541.949 66.6775 541.276 77.2632C541.227 78.0104 541.824 78.6331 542.547 78.7576C545.237 79.1313 552.061 79.4301 555.299 79.5796C559.783 79.8038 567.753 80.2521 570.692 80.1774C571.414 80.1276 572.012 79.5796 572.012 78.8075C572.087 75.42 572.062 70.6378 571.838 67.1508C571.763 65.9054 570.318 65.5567 569.646 66.4035C566.981 69.6913 564.515 70.6876 560.505 70.4884C557.167 70.314 555.673 69.2181 555.748 67.5244V67.076C555.847 65.5069 557.043 64.9091 559.882 65.0087C561.8 65.0585 563.12 65.5318 565.387 66.6277C565.985 67.101 566.757 66.7024 566.806 65.8556L567.031 62.518C567.08 61.7209 566.433 61.1979 565.661 61.1979C563.444 61.1232 562.049 61.2477 560.131 61.1481C557.242 60.9986 556.121 60.4008 556.171 59.3796V59.2053C556.221 58.3086 557.043 57.3372 559.534 57.4618V57.4867Z" fill="black"/>
<path id="Vector_29" d="M611.352 20.2241C613.345 19.8505 616.682 18.3809 618.401 18.8542C619.397 19.1281 620.094 20.0497 619.273 21.594C618.102 24.2342 614.988 31.7811 612.448 37.6095C612.099 38.3567 612.448 39.2285 613.245 39.5772C614.864 40.1999 618.276 41.1214 619.945 41.5698C621.589 42.0181 624.852 42.8899 626.521 43.1638C627.417 43.2635 628.14 42.6657 628.214 41.8687C628.962 35.5671 630.082 27.4721 630.381 24.6078C630.431 22.8643 631.527 22.4159 632.473 22.6899C634.142 23.1382 636.359 26.1022 637.878 27.4223C638.327 28.1945 639.448 28.0699 639.771 26.8744C640.12 25.5294 641.689 18.63 642.063 16.3634C642.212 15.666 641.889 15.118 641.092 14.8441C637.654 13.7232 631.602 12.0793 628.015 11.1328C624.453 10.1615 618.376 8.51756 614.864 7.77033C614.042 7.59598 613.494 7.89487 613.27 8.59228C612.473 10.7343 610.405 17.285 609.982 18.7296C609.658 19.9252 610.555 20.6973 611.327 20.249L611.352 20.2241Z" fill="black"/>
<path id="Vector_30" d="M634.988 80.403C631.65 83.0183 629.035 83.4417 625.174 82.3458C621.961 81.4242 620.741 80.0294 621.214 78.3855L621.339 77.9621C621.762 76.4677 623.057 76.1439 625.822 76.8662C627.665 77.3394 628.861 78.0866 630.803 79.6807C631.277 80.2785 632.123 80.0543 632.373 79.2324L633.319 76.0193C633.543 75.2472 633.02 74.5996 632.298 74.4252C630.131 73.8524 628.761 73.6531 626.918 73.1301C624.128 72.333 623.157 71.5111 623.456 70.5148L623.505 70.3404C623.755 69.4936 624.751 68.6965 627.167 69.3939C630.006 70.191 632.572 71.7601 634.888 74.1762C635.66 75.0977 636.682 75.023 636.98 73.952C637.678 71.3616 638.724 67.3515 639.272 64.7362C639.421 64.0388 639.098 63.3912 638.375 63.1422C636.134 62.37 631.277 60.9503 626.893 59.7049C623.904 58.8581 617.926 57.1644 615.585 56.6662C614.937 56.5168 614.265 56.7659 614.041 57.3885C611.6 63.4161 607.963 74.4252 604.924 84.5875C604.725 85.3098 605.149 86.0321 605.821 86.331C608.387 87.2775 614.937 89.0957 618.076 89.9924C622.41 91.2129 630.056 93.4296 632.945 94.0274C633.668 94.127 634.365 93.7285 634.539 93.0062C635.386 89.7184 636.432 85.0607 636.98 81.6235C637.205 80.3781 635.86 79.7305 635.013 80.403H634.988Z" fill="black"/>
<path id="Vector_31" d="M368.306 274.756C358.294 283.523 353.835 298.044 357.223 310.921C357.522 312.017 358.493 312.74 359.589 312.74C359.788 312.74 360.012 312.715 360.212 312.665C361.507 312.316 362.304 310.996 361.955 309.676C359.041 298.567 362.902 285.989 371.544 278.417C372.566 277.521 372.665 275.976 371.769 274.98C370.872 273.959 369.328 273.859 368.331 274.756H368.306Z" fill="black"/>
<path id="Vector_32" d="M502.476 35.2195C503.945 35.2195 506.735 34.8957 508.154 34.7462C509.624 34.5719 512.937 34.1983 514.406 33.8495C515.054 33.6752 515.577 33.1272 515.378 32.2057C514.879 29.8893 514.107 26.1531 513.833 23.7869C513.41 20.5739 513.784 18.7307 514.506 18.6311C515.477 18.5315 516.2 20.1753 517.071 22.691C517.545 23.9862 517.968 25.381 518.391 26.6762C519.164 28.7435 520.235 29.8145 521.878 29.6402C523.572 29.4409 524.469 28.345 524.718 25.9539C524.743 24.6587 524.892 23.4631 524.992 22.0683C525.341 19.204 525.59 17.1615 526.611 17.037C527.358 16.9623 528.08 18.6062 528.454 21.8441C528.728 24.31 528.878 28.1956 528.853 30.6863C528.853 31.6328 529.5 32.0562 530.223 32.0562C531.742 32.0562 535.104 31.6826 536.574 31.5082C537.994 31.3339 540.733 31.035 542.178 30.6863C542.925 30.5119 543.423 29.8644 543.299 29.1171C541.78 18.3073 539.015 7.37291 537.246 0.971686C537.047 0.324092 536.449 -0.0246124 535.802 0.0252026C534.008 0.099925 531.318 0.373907 529.774 0.548259C528.354 0.722612 525.664 1.0215 524.22 1.37021C523.224 1.61928 522.576 2.31669 522.451 3.51225C522.277 4.83234 522.103 7.49744 521.804 9.91347C521.555 12.1302 520.982 13.7741 520.185 13.8738C519.288 13.9734 518.367 12.5537 517.47 10.0629C516.797 8.16994 515.951 5.47994 515.602 4.30929C515.203 3.18845 514.431 2.64049 513.335 2.64049C511.866 2.64049 509.25 2.93938 507.781 3.08882C506.286 3.26317 503.273 3.66169 501.728 3.96058C501.106 4.08512 500.583 4.53345 500.583 5.20596C500.309 11.8313 500.035 23.1144 501.031 33.999C501.106 34.7462 501.753 35.2693 502.525 35.2693L502.476 35.2195Z" fill="black"/>
<path id="Vector_33" d="M657.788 69.8654C656.393 69.2677 653.728 68.2714 652.383 67.7732C651.038 67.3 648.173 66.3037 646.604 65.8304C645.907 65.6312 645.159 66.0297 645.01 66.5777C643.267 72.6302 642.245 79.7786 641.822 83.8883C641.797 84.3616 642.071 85.0341 642.519 85.2334C643.54 85.6817 644.686 86.1549 645.658 86.5036C646.505 86.8025 647.85 87.2509 648.771 87.475C649.319 87.6245 649.942 87.2758 650.216 86.9021C652.582 83.5895 656.094 77.2381 658.61 71.4595C658.859 70.9365 658.46 70.1394 657.813 69.8405L657.788 69.8654Z" fill="black"/>
<path id="Vector_34" d="M589.694 278.815C589.046 278.715 588.399 278.765 587.851 279.014C587.303 279.263 586.929 279.736 586.655 280.234C585.036 283.124 580.279 306.537 577.564 314.632C577.29 314.308 574.152 309.152 568.124 308.803C564.288 308.579 560.776 310.273 559.382 313.187C556.169 319.837 563.242 325.242 567.626 326.836C571.487 328.281 578.361 328.505 581.076 320.261C583.118 314.158 587.253 295.777 588.573 291.816C589.395 289.351 590.591 291.169 591.188 292.439C593.754 297.993 593.928 303.697 604.414 307.408C608.126 308.729 612.36 307.408 616.295 304.071C598.187 298.541 602.696 280.832 589.694 278.815Z" fill="black"/>
<path id="Vector_35" d="M645.215 87.5996C642.251 86.5285 639.461 87.5248 638.315 90.713C637.169 93.9011 638.664 96.4168 641.653 97.4878C644.592 98.5339 647.406 97.5625 648.527 94.4242C649.698 91.1862 648.179 88.6706 645.215 87.5996Z" fill="black"/>
<path id="Vector_36" d="M572.314 293.46C548.054 286.038 554.082 262.326 536.671 259.611C535.8 259.486 534.903 259.536 534.206 259.885C533.483 260.233 533.01 260.856 532.636 261.529C530.445 265.389 524.118 296.773 520.457 307.607C520.083 307.159 515.874 300.26 507.804 299.786C502.673 299.488 497.965 301.779 496.072 305.64C491.763 314.557 501.253 321.78 507.106 323.947C512.287 325.84 521.453 326.188 525.139 315.129C527.854 306.935 533.409 282.326 535.177 277.046C536.273 273.758 537.867 276.174 538.664 277.868C542.101 285.315 542.325 292.937 556.398 297.943C561.355 299.712 567.034 297.943 572.314 293.46Z" fill="black"/>
<path id="Vector_37" d="M661.415 21.6957C651.801 18.1588 643.158 21.6957 639.297 31.9825C635.412 42.3689 640.667 47.998 650.232 51.5846C659.821 55.1713 667.443 54.3743 671.353 43.9879C675.189 33.726 671.004 25.3073 661.415 21.7206V21.6957ZM658.302 38.5082C657.231 41.3975 655.736 42.1696 653.993 41.4971C652.249 40.8495 651.627 39.2804 652.722 36.416C653.843 33.4022 655.861 31.0858 657.654 31.7583C659.447 32.4308 659.423 35.5193 658.302 38.5082Z" fill="black"/>
<path id="Vector_38" d="M528.604 61.7458C534.906 60.1019 538.218 56.839 537.944 53.4765C537.621 49.4913 533.361 47.7727 525.466 48.4203C519.239 48.9433 514.656 49.1675 508.778 49.9895C508.08 50.0891 507.657 50.5623 507.632 51.2099C507.582 57.7357 507.782 68.8195 508.678 79.6293C508.753 80.526 509.475 81.1736 510.372 81.1487C513.884 81.0242 520.31 80.6755 523.149 80.4513C531.419 79.7788 541.357 77.3379 540.809 70.9117C540.535 67.4496 536.674 63.7384 528.754 63.0161C527.807 62.7919 527.782 62.1941 528.604 61.7707V61.7458ZM521.007 61.148L520.758 57.9848C520.709 57.4119 521.032 57.0134 521.605 56.9636L522.128 56.9137C523.648 56.7892 524.719 57.2874 524.818 58.5327C524.893 59.5041 524.519 61.0235 522.004 61.7956C521.481 61.9201 521.057 61.696 521.007 61.1231V61.148ZM524.37 70.5879L522.851 70.7125C522.103 70.7872 521.755 70.4136 521.705 69.7411L521.381 65.9551C521.331 65.3325 521.705 64.9339 522.253 65.0336C524.868 65.2328 526.512 66.7273 526.612 68.0723C526.736 69.5916 525.864 70.4634 524.37 70.5879Z" fill="black"/>
<path id="Vector_39" d="M577.972 32.8525C580.612 33.525 587.338 34.6209 590.551 35.1689C594.984 35.9161 602.83 37.286 605.769 37.56C606.491 37.5849 607.164 37.1117 607.239 36.3644C607.712 33.0019 608.434 26.5758 608.708 23.1137C608.808 21.7188 607.488 21.2456 606.616 22.1174C603.577 25.181 601.012 25.8286 597.076 25.1561C593.789 24.6081 592.568 22.9144 592.991 20.5233C593.764 15.9154 595.333 12.528 597.848 6.20149C598.147 5.52899 597.674 4.5825 596.852 4.40815C595.158 3.98472 593.938 3.73565 591.796 3.36204C588.807 2.86389 586.565 2.46537 584.473 2.29102C583.801 2.29102 583.178 2.51518 583.004 3.16278C581.21 9.41455 578.794 20.7474 576.901 31.1837C576.777 31.9309 577.3 32.6034 577.972 32.8027V32.8525Z" fill="black"/>
<path id="Vector_40" d="M554.003 205.513C541.399 201.552 538.61 192.81 538.884 188.725C538.983 187.38 537.962 186.209 536.617 186.135C535.272 186.035 534.101 187.056 534.027 188.401C533.653 193.806 537.065 205.288 552.558 210.17C552.807 210.245 553.056 210.295 553.28 210.295C554.326 210.295 555.273 209.622 555.597 208.576C555.995 207.281 555.273 205.911 554.003 205.513Z" fill="black"/>
<path id="Vector_41" d="M451.5 308.402C451.5 309.847 452.621 311.018 453.991 311.018C455.361 311.018 456.481 309.847 456.481 308.402C456.481 306.958 455.361 305.787 453.991 305.787C452.621 305.787 451.5 306.958 451.5 308.402Z" fill="black"/>
<path id="Vector_42" d="M139.351 69.2688C139.725 69.2688 140.099 69.1941 140.447 69.0197L144.358 67.0521C145.553 66.4543 146.052 64.9847 145.454 63.7643C144.856 62.5687 143.386 62.0706 142.166 62.6683L138.255 64.636C137.06 65.2338 136.562 66.7033 137.16 67.9238C137.583 68.7707 138.455 69.2688 139.351 69.2688Z" fill="black"/>
<path id="Vector_43" d="M252.485 77.6858C247.204 74.9211 239.633 75.7181 234.502 79.5788C232.907 80.7743 231.587 82.1941 230.691 83.7134C229.894 85.0335 229.321 86.5529 228.972 88.2466C227.901 93.5519 229.595 98.9817 233.431 102.444C236.32 105.059 240.38 106.479 244.539 106.479C246.059 106.479 247.578 106.28 249.072 105.906C254.901 104.362 259.708 99.8535 261.053 94.6976C262.024 90.9615 261.277 86.8767 258.911 83.1904C257.591 81.0981 255.424 79.255 252.485 77.7356V77.6858ZM244.988 103.764C238.188 103.764 232.683 98.2594 232.683 91.4596C232.683 84.6599 238.188 79.1554 244.988 79.1554C251.787 79.1554 257.292 84.6599 257.292 91.4596C257.292 98.2594 251.787 103.764 244.988 103.764Z" fill="black"/>
<path id="Vector_44" d="M288.935 95.8952C280.417 100.428 273.567 109.046 270.155 119.532C269.732 120.828 270.429 122.198 271.724 122.621C271.973 122.696 272.222 122.745 272.471 122.745C273.493 122.745 274.464 122.098 274.788 121.052C277.802 111.761 283.779 104.165 291.202 100.229C299.347 95.8952 309.434 96.1194 316.309 100.827C317.429 101.599 318.949 101.3 319.696 100.179C320.468 99.0585 320.169 97.5391 319.048 96.7919C310.704 91.0881 298.574 90.7394 288.885 95.8952H288.935Z" fill="black"/>
<path id="Vector_45" d="M460.516 309.302C460.516 312.042 462.757 314.259 465.522 314.259C468.287 314.259 470.528 312.042 470.528 309.302C470.528 306.562 468.287 304.346 465.522 304.346C462.757 304.346 460.516 306.562 460.516 309.302Z" fill="black"/>
<path id="Vector_46" d="M480.062 314.358C483.13 314.358 485.617 311.771 485.617 308.579C485.617 305.388 483.13 302.801 480.062 302.801C476.995 302.801 474.508 305.388 474.508 308.579C474.508 311.771 476.995 314.358 480.062 314.358Z" fill="black"/>
<path id="Vector_47" d="M99.3503 95.8692C99.948 95.8692 100.521 95.6699 100.994 95.2216C110.808 86.2798 121.792 78.6581 133.623 72.5558C134.818 71.9331 135.292 70.4635 134.669 69.268C134.046 68.0724 132.577 67.5992 131.381 68.2219C119.177 74.5235 107.844 82.3942 97.7064 91.61C96.7101 92.5067 96.6353 94.0509 97.532 95.0472C98.0052 95.5703 98.6777 95.8443 99.3503 95.8443V95.8692Z" fill="black"/>
<path id="Vector_48" d="M99.5968 176.443C92.3986 171.91 85.4992 166.754 79.1229 161.125C74.0168 156.617 68.6368 151.088 67.516 144.313C67.2918 142.993 66.0215 142.071 64.7015 142.295C63.3814 142.52 62.4847 143.765 62.6839 145.11C64.0539 153.379 70.1313 159.681 75.8849 164.762C82.4605 170.565 89.5591 175.871 96.9815 180.553C97.38 180.802 97.8284 180.927 98.2767 180.927C99.0987 180.927 99.8708 180.528 100.344 179.781C101.066 178.635 100.718 177.141 99.5719 176.419L99.5968 176.443Z" fill="black"/>
<path id="Vector_49" d="M65.7832 138.064C65.7832 138.064 65.9077 138.064 65.9825 138.064C67.2278 138.064 68.2989 137.092 68.4234 135.822C68.5978 133.655 69.5691 131.488 71.0885 129.894C72.0101 128.923 71.9852 127.378 71.0138 126.432C70.0424 125.51 68.4981 125.535 67.5516 126.507C65.2352 128.923 63.8155 132.086 63.5415 135.398C63.417 136.743 64.4382 137.914 65.7832 138.039V138.064Z" fill="black"/>
<path id="Vector_50" d="M405.077 335.679C412.226 337.198 420.47 326.886 423.534 312.639C426.572 298.467 423.309 285.764 416.285 284.095C418.353 282.501 420.744 281.131 423.509 280.135C424.779 279.687 425.427 278.267 424.978 277.022C424.53 275.751 423.11 275.104 421.865 275.552C412.5 278.939 406.821 285.889 403.259 292.763C400.868 296.649 398.9 301.58 397.705 307.11C394.641 321.357 397.954 334.159 405.102 335.704L405.077 335.679Z" fill="black"/>
<path id="Vector_51" d="M614.277 121.4C612.982 118.735 609.595 113.205 603.143 110.615C598.66 108.822 593.679 108.822 588.349 110.615C584.04 101.748 573.304 97.8375 559.008 100.129C534.698 104.04 501.745 126.257 493.85 164.714C483.164 159.284 476.863 163.892 473.949 167.329C468.245 174.079 466.601 186.359 468.444 198.339C468.245 198.439 468.045 198.538 467.871 198.688C457.883 207.879 443.263 208.053 432.926 205.139C432.876 205.139 432.801 205.139 432.752 205.114C437.26 172.46 414.395 119.881 387.868 106.954C384.63 105.385 381.542 104.463 378.653 104.064C382.513 95.5959 381.193 88.9705 374.642 84.3626C366.772 78.8082 358.478 79.3313 349.86 85.882C340.719 80.4272 333.595 71.7345 330.033 61.7217C332.275 61.2734 334.492 60.6756 336.683 59.9035C340.968 58.3592 344.156 55.4201 345.949 51.41C348.066 46.6278 347.967 40.6251 345.65 34.9462C339.349 19.5036 325.525 10.0387 304.578 6.85057C233.915 -3.95927 95.8532 61.1987 61.4311 102.52C57.8444 105.584 37.9184 127.278 36.698 142.497C36.698 142.571 36.698 142.646 36.698 142.696C36.7478 150.99 40.1103 159.035 46.4866 166.059C61.3314 180.73 76.799 190.219 93.1881 200.232C95.3301 201.552 97.4722 202.847 99.6142 204.192C54.3574 214.23 -8.50909 250.421 0.955749 310.174C4.31826 334.284 15.3024 353.363 33.6343 366.888C53.3361 381.409 81.1827 388.906 114.26 388.906C126.963 388.906 140.462 387.785 154.535 385.544C177.724 404.199 201.262 423.179 223.977 441.735C224.301 442.133 224.724 442.432 225.198 442.582C225.497 442.706 225.82 442.806 226.169 442.806C226.468 442.806 226.742 442.756 227.016 442.657C227.315 442.532 227.564 442.358 227.813 442.158C254.862 431.946 276.557 420.813 298.426 409.056C298.525 409.505 298.725 409.928 299.098 410.277C309.435 419.791 307.841 430.028 306.296 439.917C304.677 450.378 302.984 461.188 319.174 465.945C320.693 466.393 322.138 466.593 323.507 466.593C328.489 466.593 332.599 463.878 336.21 460.191C340.644 468.336 345.277 477.602 349.835 487.166C343.508 490.404 335.986 490.18 329.037 489.084C323.956 488.287 318.949 487.091 314.043 485.547L314.092 485.348C307.268 482.259 306.421 472.795 301.19 467.464C298.625 464.849 295.063 463.355 291.476 462.632C285.474 461.412 279.396 462.109 273.518 463.927C270.205 454.413 260.317 447.065 249.059 446.393C244.277 446.094 239.295 446.941 234.413 448.759C211.548 448.261 193.914 465.696 185.894 496.756C176.603 532.672 182.182 579.448 202.158 611.106C167.313 611.454 141.533 616.785 141.16 624.581C140.712 633.971 177.475 643.361 223.255 645.553C234.413 646.101 245.074 646.151 254.813 645.802C254.838 645.802 254.862 645.752 254.912 645.727C255.46 645.727 255.983 645.777 256.531 645.777C262.758 645.777 268.761 644.581 274.141 642.14C280.467 639.276 287.367 633.473 288.662 625.527C298.675 616.909 303.557 602.139 300.617 588.166C298.725 579.199 293.843 570.706 286.819 563.831C289.733 562.412 292.149 559.946 293.768 556.633C296.582 550.904 296.558 543.631 293.693 538.127C291.153 533.245 287.217 529.584 282.834 526.744C283.581 525.1 283.481 522.958 282.908 521.165C282.086 518.574 280.542 516.208 280.144 513.518C279.969 512.348 280.144 511.077 280.592 509.981C280.916 510.181 281.239 510.405 281.588 510.579C286.196 513.17 323.707 531.302 361.392 512.099C372.7 537.081 381.94 558.651 384.182 560.195C367.594 577.954 370.035 594.617 378.08 605.651C356.51 607.32 341.316 612.949 340.768 620.645C340.046 631.355 368.092 641.991 403.411 644.407C412.029 645.005 420.273 645.03 427.845 644.606C429.215 644.756 430.585 644.831 431.955 644.831C434.545 644.831 437.16 644.581 439.751 644.083C441.644 643.71 443.437 643.211 445.18 642.639C445.28 642.639 445.405 642.614 445.504 642.589V642.539C465.231 635.789 476.29 616.162 488.943 593.72C491.508 589.187 494.148 584.48 496.938 579.747C499.279 575.762 503.19 570.531 507.723 564.504C523.888 542.909 548.322 510.255 541.522 480.64C540.999 478.349 540.277 476.132 539.405 473.965C539.455 473.367 539.256 472.745 538.832 472.247C538.733 472.122 538.608 472.022 538.509 471.898C533.178 460.44 522.767 450.652 507.399 442.681C487.722 432.469 464.583 436.405 445.554 453.242C433.598 463.803 423.536 479.669 418.953 497.279C414.694 496.506 410.908 497.328 408.068 499.72C404.432 502.808 402.514 508.313 402.29 516.134C399.176 509.857 395.141 501.886 390.633 493.069C415.914 471.474 409.812 430.377 401.318 408.259C401.592 408.21 401.866 408.16 402.14 408.085C407.047 406.74 410.833 402.78 412.253 397.449C413.648 392.169 413.249 385.344 412.801 378.146C412.303 369.752 411.755 361.085 414.37 355.829C414.37 355.779 414.395 355.729 414.42 355.705C416.861 354.484 419.227 352.965 421.394 351.146C427.994 345.617 432.179 338.269 434.769 333.213C442.142 318.792 445.977 303.474 445.878 288.928C445.853 284.619 445.479 278.242 442.64 272.439C439.701 266.511 434.47 262.127 428.617 260.707C426.051 260.085 423.312 260.01 420.422 260.458C419.949 258.565 418.803 256.971 417.981 255.851C417.458 255.103 416.861 254.306 416.113 253.584C414.146 251.716 411.281 250.794 408.392 251.018C407.495 249.599 407.62 247.631 407.794 246.535C407.969 245.389 408.292 244.244 408.616 243.023C408.716 242.674 408.815 242.301 408.915 241.952C418.953 246.186 429.688 248.279 440.348 248.279C458.406 248.279 476.24 242.351 490.039 230.993C496.091 232.985 504.111 232.736 514.199 226.534C515.469 227.83 516.889 229.05 518.483 230.171C523.988 234.007 530.663 235.925 538.434 235.925C543.241 235.925 548.447 235.202 554.076 233.733C576.293 227.929 590.989 216.422 599.009 198.563C610.392 200.257 620.106 191.589 625.261 174.976C631.638 154.452 628.624 127.876 614.302 121.525L614.277 121.4ZM272.098 637.682C261.114 642.639 247.066 641.817 234.513 635.465C201.262 618.653 175.034 558.053 190.576 497.951C196.479 475.136 207.787 460.266 222.383 455.359C220.64 456.655 218.946 458.074 217.327 459.643C209.431 467.165 203.503 476.655 200.191 487.067C197.276 496.183 196.479 505.598 195.882 514.465C194.437 536.159 194.113 561.465 202.656 584.604C211.822 609.437 230.976 627.918 252.646 632.8C256.357 633.647 260.068 634.045 263.68 634.045C270.131 634.045 276.258 632.701 281.563 630.135C279.247 633.522 275.561 636.113 272.098 637.682ZM289.334 540.369C291.476 544.478 291.476 550.157 289.334 554.466C287.815 557.53 285.424 559.522 282.584 560.12C279.919 557.978 277.005 556.06 273.917 554.416C260.616 547.268 245.946 546.272 234.687 551.751C233.467 552.349 232.969 553.794 233.567 555.014C234.164 556.235 235.609 556.733 236.829 556.135C246.693 551.353 259.695 552.324 271.6 558.7C284.154 565.425 293.17 576.808 295.785 589.137C298.326 601.242 294.241 613.995 285.748 621.517C285.05 621.691 284.453 622.19 284.154 622.837C283.705 623.186 283.257 623.535 282.784 623.833C275.112 628.939 264.502 630.459 253.717 628.018C233.641 623.485 215.808 606.174 207.214 582.886C198.995 560.593 199.319 535.935 200.739 514.739C201.311 506.171 202.084 497.104 204.823 488.511C207.887 478.872 213.392 470.105 220.689 463.155C225.223 458.846 230.204 455.583 235.285 453.566C235.659 453.516 236.032 453.392 236.331 453.167C239.943 451.847 243.604 451.15 247.141 451.15C247.664 451.15 248.212 451.15 248.735 451.2C256.805 451.698 264.228 456.505 267.715 462.856C259.022 457.85 249.781 456.107 241.637 458.124C233.093 460.216 224.973 465.895 217.501 474.986C212.121 481.562 203.553 494.663 206.592 508.736C207.314 512.024 208.634 514.29 210.652 515.66C213.317 517.454 216.48 517.18 219.145 516.956C233.965 515.71 250.304 518.375 267.765 524.876C275.561 527.765 285.075 532.124 289.334 540.344V540.369ZM257.951 486.743L261.961 483.281C262.932 482.434 264.427 482.533 265.274 483.53C266.121 484.526 265.996 486.02 265.025 486.867L261.015 490.329C260.566 490.703 260.018 490.902 259.495 490.902C258.848 490.902 258.175 490.628 257.727 490.08C256.88 489.084 257.004 487.59 257.976 486.743H257.951ZM221.013 511.974C220.216 512.024 219.419 512.074 218.622 512.123C216.654 512.298 214.612 512.447 213.392 511.625C212.47 511.003 211.797 509.707 211.374 507.715C208.759 495.66 216.455 484.003 221.287 478.1C228.062 469.831 235.285 464.725 242.807 462.881C249.756 461.163 257.752 462.732 265.373 467.141C263.132 468.236 260.94 469.457 258.823 470.752C242.757 480.665 229.556 495.087 221.038 511.949L221.013 511.974ZM293.668 480.366C292.697 481.238 291.202 481.139 290.356 480.142C288.637 478.175 285.673 477.851 283.456 478.175C280.592 478.598 277.802 480.068 275.062 481.487C274.714 481.662 274.34 481.761 273.991 481.761C273.145 481.761 272.323 481.288 271.899 480.466C271.301 479.295 271.75 477.876 272.895 477.278C275.959 475.684 279.122 474.04 282.734 473.492C287.192 472.819 291.327 474.14 293.843 477.029C294.689 478 294.59 479.52 293.618 480.366H293.668ZM385.726 111.412C404.905 120.752 422.465 153.755 427.222 182.249C413.623 178.463 400.696 182.548 390.658 188.127C390.982 187.579 391.281 187.006 391.505 186.384C392.426 183.818 392.053 181.029 391.679 178.363C390.857 172.734 388.79 162.921 388.416 161.277C388.391 161.127 388.267 161.028 388.117 161.003L371.18 158.537C371.18 158.537 370.782 158.139 370.981 157.964L385.452 149.172C385.602 149.097 385.652 148.923 385.627 148.748C385.278 147.777 384.107 144.439 383.36 142.671C378.603 131.388 370.458 121.026 359.2 116.194C358.677 116.593 358.179 117.041 357.68 117.465C366.149 108.498 375.539 106.431 385.726 111.387V111.412ZM320.917 227.68C321.116 227.581 321.316 227.506 321.49 227.356C332.076 218.215 353.122 203.819 375.315 210.27C376.411 210.594 377.557 210.096 378.105 209.149C379.624 223.546 378.03 237.045 370.857 246.037C363.06 255.826 349.087 260.209 336.111 256.996C330.78 255.676 327.717 253.559 322.661 250.072C322.436 249.923 322.187 249.798 321.913 249.723C322.411 242.301 321.888 234.654 320.917 227.68ZM363.858 339.913C345.775 348.93 271.003 385.992 232.62 402.63C212.071 386.341 191.099 370.275 170.825 354.733C147.063 336.526 122.504 317.721 98.7923 298.666C116.95 291.966 194.312 263.945 237.95 248.179C250.13 256.523 268.761 270.322 288.911 285.316C289.21 285.69 289.559 285.989 290.007 286.138C291.651 287.358 293.32 288.604 294.988 289.849C320.668 308.978 347.17 328.705 363.882 339.913H363.858ZM318.825 293.262C324.454 288.629 333.794 290.696 337.207 296.798C338.178 298.069 340.42 307.06 335.314 311.045C331.901 313.711 333.844 313.461 325.276 306.712C313.669 297.595 310.082 300.41 318.8 293.262H318.825ZM177.4 251.292C184.798 240.956 189.381 230.32 191 220.034C191.324 220.283 191.622 220.532 191.921 220.781C193.839 222.35 195.483 223.695 197.775 225.837C197.476 226.634 197.177 227.381 196.878 228.104C195.184 232.238 193.59 236.124 197.077 240.682C199.468 243.795 202.333 244.841 205.122 244.841C208.435 244.841 211.648 243.372 213.915 242.201C215.832 244.293 218.248 247.033 220.291 249.375C207.613 253.958 192.793 259.313 177.824 264.742C175.582 262.6 173.266 260.508 170.874 258.491C173.49 256.473 175.582 253.883 177.425 251.268L177.4 251.292ZM165.32 256.174C161.484 257.918 156.478 257.619 149.952 255.278C127.785 247.307 110.424 227.232 105.766 204.143C104.546 198.264 109.453 192.561 113.787 188.8C120.736 182.772 130.151 180.157 137.573 178.563C141.932 177.641 147.362 176.695 152.991 176.695C157.972 176.695 163.128 177.442 167.861 179.584C178.895 184.615 186.467 197.368 186.716 211.316C186.915 223.147 182.307 235.999 173.39 248.453C171.148 251.566 168.633 254.68 165.295 256.199L165.32 256.174ZM296.134 135.298C297.13 135.448 297.927 136.17 298.65 136.892C302.66 140.903 306.271 145.261 309.883 149.62C310.68 150.567 311.502 151.837 310.929 152.908C310.531 153.63 309.634 153.929 308.812 153.83C307.542 153.655 306.545 152.609 305.674 151.638C302.311 147.902 298.974 144.141 295.636 140.404C294.939 139.607 294.191 138.761 293.942 137.714C293.718 136.668 294.142 135.398 295.163 135.074C293.992 135.996 295.163 135.174 296.134 135.298ZM311.203 205.787C313.42 213.259 315.238 221.528 316.284 229.772C299.771 226.061 282.958 230.893 269.259 238.615C270.604 237.27 271.725 235.725 272.372 233.907C273.443 230.794 272.995 227.406 272.522 224.143C271.55 217.319 269.01 205.413 268.586 203.42C268.562 203.246 268.412 203.121 268.238 203.097L247.689 200.108C247.689 200.108 247.191 199.634 247.465 199.41L265.025 188.75C265.199 188.625 265.274 188.451 265.224 188.252C264.825 187.081 263.381 183.021 262.484 180.879C256.855 167.529 246.319 154.303 233.168 148.2C234.364 147.254 235.659 146.382 237.029 145.585C247.017 139.856 260.168 140.529 272.223 147.403C289.833 157.441 302.585 176.57 311.228 205.836L311.203 205.787ZM250.304 182.523C250.304 181.427 251.176 180.53 252.272 180.53C253.368 180.53 254.24 181.427 254.24 182.523C254.24 183.619 253.368 184.516 252.272 184.516C251.176 184.516 250.304 183.619 250.304 182.523ZM233.492 158.064C232.296 158.985 233.467 158.139 234.463 158.288C235.46 158.437 236.257 159.16 236.979 159.882C240.989 163.892 244.601 168.251 248.212 172.61C249.009 173.556 249.831 174.827 249.258 175.898C248.86 176.62 247.963 176.919 247.141 176.819C245.871 176.645 244.875 175.599 244.003 174.627C240.64 170.891 237.303 167.13 233.965 163.394C233.268 162.597 232.52 161.75 232.271 160.704C232.047 159.658 232.471 158.388 233.492 158.064ZM291.651 281.281C278.475 271.467 265.946 262.177 255.435 254.58C269.608 241.504 293.793 228.851 316.807 234.928C317.978 248.802 316.633 262.077 310.73 270.695C306.496 276.848 300.069 280.384 291.651 281.281ZM311.527 177.442C311.527 177.442 311.054 176.993 311.303 176.769L328.09 166.458C328.265 166.358 328.339 166.159 328.265 165.959C327.866 164.839 326.521 160.928 325.649 158.836C320.17 145.635 310.78 133.53 297.778 127.901C296.931 128.573 296.109 129.271 295.337 129.993C303.332 122.023 312.723 119.482 323.781 122.247C337.954 125.809 352.051 137.914 360.57 153.854C366.747 165.411 373.223 181.975 376.486 198.464C376.162 199.261 376.286 200.232 376.884 200.93C376.884 200.954 376.934 200.979 376.959 201.004C377.258 202.748 377.532 204.491 377.756 206.21C377.457 205.911 377.108 205.662 376.685 205.537C360.62 200.88 345.301 205.936 333.495 212.736C334.093 211.889 334.641 210.967 334.99 209.946C336.036 206.957 335.612 203.669 335.189 200.531C334.267 193.931 331.876 182.473 331.478 180.53C331.453 180.356 331.303 180.231 331.129 180.207L311.527 177.367V177.442ZM313.196 158.288C313.196 157.217 314.068 156.345 315.114 156.345C316.16 156.345 317.031 157.217 317.031 158.288C317.031 159.359 316.16 160.231 315.114 160.231C314.068 160.231 313.196 159.359 313.196 158.288ZM358.303 125.31C359.25 125.46 359.997 126.083 360.694 126.705C364.53 130.143 367.992 133.879 371.479 137.615C372.251 138.412 373.048 139.508 372.525 140.404C372.177 141.002 371.33 141.251 370.583 141.127C369.362 140.952 368.416 140.056 367.594 139.209C364.381 135.996 361.168 132.783 357.954 129.57C357.257 128.872 356.56 128.175 356.311 127.278C356.061 126.382 356.46 125.31 357.406 125.086C356.311 125.834 357.406 125.161 358.328 125.31H358.303ZM373.173 144.763C373.173 143.842 373.92 143.094 374.842 143.094C375.763 143.094 376.511 143.842 376.511 144.763C376.511 145.685 375.763 146.432 374.842 146.432C373.92 146.432 373.173 145.685 373.173 144.763ZM345.974 89.2943C345.252 89.9917 344.529 90.714 343.782 91.5111C342.861 92.5074 342.91 94.0516 343.907 94.9732C344.903 95.8948 346.447 95.845 347.369 94.8487C356.46 85.1098 364.231 83.0674 371.828 88.4474C377.98 92.7813 376.137 98.51 373.522 103.541C373.422 103.716 373.347 103.865 373.273 104.04C360.694 105.111 351.753 115.92 346.92 123.667C345.949 125.211 345.476 126.655 345.202 127.926C338.85 122.944 331.951 119.308 324.977 117.564C308.264 113.38 294.44 119.856 283.88 136.868C282.111 139.732 280.617 142.845 279.371 146.158C277.827 145.087 276.233 144.041 274.614 143.119C261.04 135.398 246.07 134.726 234.563 141.326C224.774 146.93 217.277 157.441 213.392 170.866C206.343 195.251 213.043 224.268 230.403 245.738C228.71 246.336 226.966 246.983 225.173 247.631C223.205 245.364 220.59 242.376 218.373 239.91C218.572 239.686 218.747 239.412 218.871 239.088C219.295 237.818 218.622 236.423 217.352 235.999C215.957 235.526 214.811 236.174 212.868 237.245C207.389 240.283 203.703 241.329 200.963 237.768C199.244 235.526 199.717 234.131 201.386 229.997C202.93 226.186 205.072 220.98 204.848 212.985C204.798 211.64 203.678 210.569 202.333 210.619C200.988 210.668 199.917 211.789 199.966 213.134C200.041 216.073 199.767 218.539 199.319 220.681C197.75 219.286 196.43 218.19 195.035 217.045C193.989 216.198 192.893 215.301 191.622 214.205C191.672 213.209 191.697 212.238 191.672 211.266C191.398 195.475 182.681 180.954 169.953 175.175C161.584 171.364 152.269 171.414 144.398 172.46C144.323 172.411 144.273 172.336 144.199 172.286C143.227 171.589 142.007 170.692 140.637 169.696C137.224 167.205 133.015 164.116 130.45 162.423C129.329 161.675 127.809 161.974 127.062 163.12C126.315 164.241 126.614 165.76 127.76 166.507C128.108 166.732 128.507 167.006 128.93 167.304C128.831 167.354 128.731 167.429 128.607 167.479C123.127 170.493 119.441 171.564 116.701 168.002C114.982 165.76 115.455 164.365 117.124 160.231C118.668 156.42 120.81 151.214 120.586 143.219C120.536 141.874 119.366 140.803 118.071 140.853C116.726 140.903 115.655 142.023 115.704 143.368C115.804 146.557 115.455 149.197 114.932 151.488C111.47 148.798 108.207 145.76 108.681 141.201C109.328 134.875 117.373 123.816 152.094 106.979C153.663 106.206 155.233 105.459 156.802 104.687C157.175 109.768 160.588 114.999 165.544 117.714C168.085 119.109 170.899 119.806 173.664 119.806C176.628 119.806 179.542 119.009 182.008 117.44C186.317 114.675 189.107 109.743 189.705 103.865C190.203 98.8338 188.833 94.1761 185.919 90.9382C223.18 74.1007 262.011 60.6258 304.453 62.9422C302.535 65.956 301.664 69.8416 302.162 73.9264C302.884 79.8544 306.745 85.0102 312 87.1024C313.818 87.8247 315.761 88.1735 317.779 88.1735C321.017 88.1735 324.379 87.2519 327.518 85.4336C329.784 84.1384 332.599 82.1458 334.342 79.0324C337.68 83.0425 341.615 86.5545 345.999 89.369L345.974 89.2943ZM169.729 99.0082C184.3 92.8062 183.453 87.8247 185.844 100.054C187.388 107.95 180.688 115.771 173.141 115.771C171.422 116.02 161.733 113.33 160.538 106.306C159.741 101.599 158.969 103.616 169.754 99.0082H169.729ZM330.83 74.2502C330.83 74.2502 330.855 74.3 330.88 74.3249C330.88 74.4245 330.83 74.5242 330.805 74.6238C330.805 74.4993 330.805 74.3747 330.805 74.2502H330.83ZM331.453 76.0186C333.944 78.5094 325.749 83.4161 318.65 83.4161C311.552 83.4161 304.528 76.442 305.973 67.8241C307.118 60.9745 308.14 63.0418 318.949 63.0418C325.625 63.0418 323.283 67.8241 331.453 76.0186ZM64.5445 106.256C64.7438 106.132 64.9181 105.957 65.0676 105.783C81.0332 86.4797 123.351 60.0529 170.376 40.0273C223.927 17.2121 272.597 6.87548 303.855 11.6577C322.984 14.5968 335.538 23.0404 341.142 36.7894C342.96 41.2478 343.085 45.8557 341.491 49.4174C340.245 52.232 338.078 54.1997 335.04 55.3205C327.244 58.16 318.526 58.16 310.83 58.1849H308.837C250.454 53.6766 199.344 78.4595 149.927 102.445C124.273 114.899 109.577 125.834 105.169 135.722C104.944 133.231 105.069 130.616 105.243 128.125C106.09 116.169 100.561 107.626 90.0248 104.662C82.1043 102.445 71.8424 103.741 62.527 108.199C63.4984 107.178 64.2207 106.48 64.5445 106.231V106.256ZM95.7287 196.098C79.6135 186.234 64.3702 176.894 49.9985 162.697C44.4691 156.619 41.6296 149.919 41.5549 142.771C41.8787 138.96 43.7219 134.501 46.2126 130.043C46.387 129.869 46.5364 129.669 46.6609 129.445C54.8555 113.529 75.6034 105.733 88.6798 109.395C94.4833 111.014 101.208 115.547 100.337 127.801C99.8135 135.174 100.013 142.671 105.019 147.578C106.887 151.389 110.25 154.004 112.217 155.523C112.591 155.797 113.014 156.146 113.288 156.37C113.039 157.043 112.765 157.69 112.516 158.288C110.823 162.423 109.229 166.308 112.716 170.866C115.107 173.98 117.946 175.026 120.761 175.026C124.796 175.026 128.681 172.859 130.873 171.663C131.371 171.389 131.994 171.041 132.318 170.891C132.741 170.891 133.14 170.717 133.488 170.518C134.883 171.539 136.328 172.585 137.623 173.531C137.249 173.606 136.901 173.681 136.527 173.756C128.532 175.474 118.32 178.314 110.549 185.088C104.347 190.468 101.781 195.325 100.959 199.335C99.1908 198.24 97.4224 197.169 95.6539 196.073L95.7287 196.098ZM72.5647 229.299C75.7778 227.057 79.4641 225.463 83.2749 224.641C84.5452 224.367 85.7906 225.189 86.0646 226.46C86.3385 227.73 85.5166 229 84.2712 229.274C81.0582 229.972 77.9447 231.317 75.2547 233.21C74.8562 233.484 74.383 233.633 73.9346 233.633C73.1874 233.633 72.4651 233.284 71.9918 232.612C71.2446 231.541 71.5186 230.071 72.5896 229.324L72.5647 229.299ZM23.0736 278.716C22.6252 279.463 21.8531 279.861 21.0561 279.861C20.6326 279.861 20.2341 279.762 19.8605 279.513C18.7397 278.84 18.391 277.371 19.0635 276.25C29.8484 258.192 45.1665 243.222 63.3739 232.961C64.4947 232.313 65.9393 232.736 66.562 233.882C67.1847 235.028 66.7862 236.473 65.6653 237.095C48.1554 246.959 33.4351 261.33 23.0736 278.691V278.716ZM45.8639 315.056C36.0504 294.333 51.3186 271.617 71.4688 259.91C82.3533 253.584 98.6677 248.055 121.358 242.973C121.483 242.948 121.583 242.899 121.682 242.874C129.229 250.371 138.32 256.299 148.333 259.886C152.592 261.405 156.378 262.177 159.766 262.177C162.107 262.177 164.249 261.803 166.217 261.056C168.409 262.85 170.526 264.718 172.593 266.611C132.741 281.057 93.5368 295.279 92.7149 295.752C91.9925 296.151 91.5193 296.873 91.4695 297.67C91.4695 297.77 91.4695 297.894 91.4695 297.994L89.2527 331.594C89.2029 332.391 89.5267 333.163 90.1494 333.661C93.9104 336.7 97.7213 339.764 101.507 342.827C71.6431 341.283 51.8915 327.808 45.8639 315.056ZM224.475 435.832C202.532 417.923 179.841 399.641 157.524 381.658C157.225 381.185 156.802 380.861 156.304 380.662C151.77 377.025 147.262 373.389 142.754 369.777C126.44 356.651 110.2 343.6 94.2093 330.673L96.0525 302.751C119.715 321.756 144.149 340.486 167.811 358.619C188.086 374.161 209.033 390.201 229.556 406.466L224.45 435.832H224.475ZM229.357 436.305L234.389 407.363C234.389 407.363 234.488 407.288 234.513 407.238C234.563 407.188 234.588 407.114 234.638 407.039C273.045 390.376 347.518 353.463 365.9 344.322C364.854 351.769 362.811 366.016 362.164 370.524C341.466 380.139 323.757 389.728 306.62 399.019C282.086 412.294 258.848 424.873 229.357 436.28V436.305ZM348.216 392.02C350.034 398.844 343.658 407.188 336.434 408.608C329.236 410.078 322.586 399.567 323.433 396.478C323.433 396.478 332.823 391.148 343.932 385.32C343.932 385.32 347.045 388.284 348.191 392.02H348.216ZM385.801 507.341C385.477 507.491 385.129 507.565 384.805 507.565C383.933 507.565 383.086 507.067 382.688 506.22L367.643 474.289C367.096 473.118 367.594 471.699 368.764 471.126C369.935 470.578 371.33 471.076 371.878 472.247L386.922 504.178C387.47 505.349 386.972 506.768 385.801 507.341ZM369.362 451.274C373.721 450.951 377.706 447.837 380.57 443.902C380.994 453.167 380.022 461.91 376.809 465.92C374.294 461.013 371.803 456.082 369.362 451.25V451.274ZM536.765 481.662C543.042 509.085 519.43 540.643 503.813 561.515C499.205 567.667 495.22 572.997 492.729 577.207C489.914 581.989 487.249 586.696 484.684 591.254C471.458 614.742 460.025 635.017 438.804 639.226C435.765 639.824 432.702 639.998 429.663 639.824C427.77 639.625 425.852 639.326 423.86 638.878C421.942 638.454 420.123 637.881 418.33 637.234C413.747 626.075 414.868 615.041 421.643 604.455C424.931 599.349 428.991 594.592 432.951 589.984C436.189 586.198 439.551 582.288 442.515 578.128C451.831 565.052 457.26 549.759 462.491 534.939C464.683 528.737 466.95 522.336 469.465 516.208C476.713 498.574 489.989 476.257 511.982 470.154C519.056 468.187 528.471 468.386 534.349 474.488C535.37 476.805 536.167 479.171 536.74 481.612L536.765 481.662ZM523.465 459.569C525.507 461.511 527.35 463.504 528.969 465.596C522.917 463.604 516.192 463.977 510.712 465.497C486.801 472.147 472.653 495.759 464.982 514.39C462.416 520.617 460.125 527.093 457.908 533.345C452.777 547.841 447.472 562.81 438.555 575.314C435.716 579.299 432.428 583.11 429.265 586.821C425.205 591.553 421.02 596.435 417.558 601.84C410.933 612.177 409.114 622.887 412.053 633.796C410.136 632.451 408.417 630.882 406.898 629.139C406.898 628.915 406.898 628.665 406.823 628.441C404.805 620.795 406.574 611.579 411.854 602.513C415.167 596.784 419.526 591.479 423.735 586.373C425.528 584.181 427.372 581.939 429.14 579.648C438.306 567.817 445.703 554.79 451.133 540.916C453.225 535.536 455.044 530.007 456.812 524.627C458.78 518.649 460.797 512.447 463.213 506.569C471.782 485.697 485.306 469.631 501.297 461.312C508.968 457.327 517.038 456.704 523.489 459.569H523.465ZM415.242 571.353C429.962 558.775 408.865 548.488 408.566 530.007C408.566 529.733 408.342 529.085 407.969 528.139C405.677 511.999 408.392 505.747 411.207 503.356C412.875 501.936 415.142 501.463 417.857 501.936C415.291 514.813 415.715 528.413 420.547 541.415C421.02 542.685 422.415 543.333 423.685 542.859C424.956 542.386 425.603 540.991 425.13 539.721C413.772 509.06 428.443 474.812 448.792 456.829C466.526 441.162 487.075 437.55 505.158 446.941C508.794 448.834 512.107 450.826 515.146 452.918C509.865 452.844 504.336 454.214 498.981 456.978C481.969 465.82 467.647 482.782 458.63 504.701C456.165 510.754 454.097 517.03 452.105 523.108C450.361 528.413 448.568 533.868 446.525 539.123C441.27 552.573 434.097 565.201 425.23 576.659C423.511 578.875 421.668 581.117 419.899 583.284C415.565 588.564 411.107 594.019 407.57 600.072C404.083 606.099 401.966 612.227 401.318 618.08C401.019 613.572 388.964 593.845 415.217 571.353H415.242ZM391.953 516.258L394.643 522.609C395.141 523.805 394.593 525.2 393.398 525.723C393.099 525.847 392.775 525.922 392.476 525.922C391.555 525.922 390.708 525.374 390.309 524.478L387.619 518.126C387.121 516.931 387.669 515.536 388.865 515.013C390.06 514.49 391.43 515.063 391.928 516.258H391.953ZM398.379 463.803C398.08 464.849 397.159 465.522 396.113 465.522C395.913 465.522 395.689 465.497 395.465 465.422C394.22 465.073 393.497 463.753 393.846 462.508C396.287 453.74 396.785 444.325 395.316 435.309C395.091 434.014 395.963 432.793 397.234 432.594C398.504 432.395 399.724 433.242 399.924 434.537C401.518 444.251 400.995 454.363 398.354 463.803H398.379ZM407.994 255.875C409.762 255.502 411.63 255.95 412.751 256.996C413.199 257.42 413.598 257.968 414.021 258.565C414.793 259.636 415.441 260.608 415.665 261.48C413.847 262.077 411.954 262.85 410.036 263.821C401.293 268.254 393.971 274.78 388.865 282.651C388.142 283.772 388.441 285.291 389.587 286.038C390.733 286.786 392.227 286.462 392.974 285.316C397.632 278.143 404.282 272.215 412.278 268.18C418.056 265.241 423.162 264.294 427.496 265.34C431.955 266.411 435.99 269.849 438.281 274.506C440.149 278.292 440.996 282.726 441.021 288.878C441.12 302.652 437.459 317.173 430.46 330.897C426.624 338.419 422.863 343.475 418.305 347.311C412.676 352.043 405.727 354.534 399.201 354.185C396.611 354.036 394.494 353.463 392.9 352.491C391.405 351.57 390.06 350.175 388.715 348.058C384.83 342.13 383.161 334.857 384.182 328.132C384.381 326.787 383.46 325.567 382.115 325.367C380.795 325.168 379.549 326.09 379.35 327.435C378.154 335.43 380.047 343.724 384.63 350.748C386.374 353.438 388.242 355.381 390.359 356.676C392.651 358.071 395.54 358.893 398.952 359.092C399.45 359.117 399.948 359.142 400.447 359.142C403.137 359.142 405.876 358.743 408.566 357.971C407.147 363.899 407.545 371.247 407.994 378.395C408.417 385.195 408.791 391.621 407.595 396.154C406.624 399.841 404.183 402.456 400.92 403.328C397.881 404.15 394.643 403.253 392.302 400.887C387.694 396.304 386.772 387.262 389.761 376.029C390.11 374.734 389.338 373.389 388.018 373.04C386.723 372.691 385.378 373.464 385.029 374.784C381.343 388.707 383.684 396.877 386.523 401.385C382.688 407.238 382.14 414.611 381.592 421.759C381.118 427.961 380.67 433.789 378.279 438.447C376.311 442.233 371.778 447.439 367.345 446.268C364.704 445.546 363.06 444.4 362.338 442.731C360.246 437.899 365.377 428.385 369.487 420.763C371.056 417.874 372.525 415.134 373.696 412.593C374.269 411.373 373.696 409.928 372.5 409.355C371.28 408.782 369.835 409.33 369.262 410.551C368.167 412.942 366.722 415.607 365.203 418.422C362.687 423.104 360.121 427.862 358.527 432.32C350.507 433.54 345.003 440.963 339.697 448.186C332.673 457.701 327.866 463.33 320.618 461.213C308.538 457.676 309.534 451.25 311.203 440.639C312.772 430.576 314.715 418.048 302.635 406.815C304.752 405.669 306.869 404.523 309.011 403.377C312.498 401.484 316.035 399.567 319.597 397.674C319.946 401.858 321.888 405.719 325.176 408.533C328.065 410.999 331.577 412.319 335.139 412.319C336.808 412.319 338.452 412.045 340.071 411.472C346.846 409.056 352.3 401.808 352.749 394.61C353.048 389.902 351.18 385.867 347.593 383.103C353.347 380.238 359.275 377.349 365.477 374.485C366.323 374.086 366.822 373.289 366.871 372.442C367.369 369.105 371.255 341.682 371.429 340.511C371.554 339.614 371.18 338.718 370.433 338.195C370.134 337.97 369.761 337.846 369.412 337.796C361.143 332.366 349.86 324.321 337.182 315.08C340.32 311.793 342.088 307.185 341.839 302.353C341.54 296.599 338.502 291.618 333.695 289.077C329.211 286.711 323.557 286.586 318.9 288.753C315.487 290.347 312.996 292.988 311.701 296.275C307.118 292.863 302.51 289.451 297.927 286.038C297.653 285.839 297.379 285.615 297.105 285.416C304.652 283.622 310.605 279.687 314.815 273.56C318.401 268.329 320.444 261.953 321.44 255.178C325.849 258.192 329.435 260.434 335.015 261.828C338.228 262.625 341.491 263.024 344.729 263.024C356.41 263.024 367.743 257.993 374.767 249.2C379.151 243.721 381.891 236.497 382.986 227.83C385.826 229.224 388.69 230.32 391.555 231.018C396.013 232.114 400.198 232.662 404.033 232.662C404.407 232.662 404.78 232.662 405.154 232.637C405.179 234.804 405.079 236.996 404.631 239.113C404.457 239.984 404.208 240.856 403.959 241.728C403.61 243.023 403.236 244.368 403.012 245.788C402.614 248.328 402.863 250.595 403.709 252.488C402.165 253.335 400.721 254.53 399.5 256C398.628 257.046 398.778 258.565 399.799 259.437C400.845 260.309 402.364 260.16 403.236 259.138C404.606 257.494 406.325 256.374 408.043 256L407.994 255.875ZM426.002 212.611C421.194 225.887 409.961 230.445 392.626 226.161C389.612 225.414 386.573 224.218 383.584 222.599C383.51 222.549 383.435 222.549 383.36 222.499C383.684 216.048 383.211 208.9 381.915 201.154C381.866 200.805 381.766 200.431 381.716 200.083C391.106 192.436 408.243 181.801 426.276 187.031C426.824 187.181 427.396 187.131 427.895 186.932C429.04 196.621 428.567 205.562 426.002 212.636V212.611ZM453.624 219.511C450.61 220.308 447.522 220.706 444.408 220.706C440.822 220.706 437.235 220.158 433.773 219.112C432.527 218.738 431.83 217.418 432.204 216.148C432.577 214.903 433.897 214.18 435.118 214.579C440.672 216.297 446.824 216.422 452.404 214.928C453.649 214.604 454.944 215.351 455.268 216.621C455.592 217.892 454.844 219.187 453.599 219.511H453.624ZM467.099 213.707C465.206 215.525 462.89 216.696 460.399 217.095C460.274 217.095 460.15 217.119 460.025 217.119C458.904 217.119 457.908 216.297 457.709 215.127C457.51 213.832 458.356 212.611 459.652 212.412C461.196 212.163 462.665 211.416 463.861 210.245C464.807 209.348 466.277 209.373 467.174 210.32C468.07 211.266 468.021 212.761 467.099 213.657V213.707ZM589.693 115.347C594.003 113.828 597.913 113.753 601.35 115.148C603.766 116.12 605.759 117.739 607.303 119.557C603.044 119.358 598.561 120.503 595.92 122.396C593.679 121.4 590.989 120.902 588.473 120.752C589.32 118.984 589.743 117.091 589.693 115.347ZM595.223 194.728C595.223 194.728 595.148 194.902 595.123 194.977C590.515 206.061 581.051 221.478 552.781 228.876C539.505 232.338 528.894 231.391 521.223 226.036C519.703 224.99 518.359 223.795 517.163 222.499C517.088 222.225 516.989 221.976 516.814 221.727C516.54 221.304 516.167 221.005 515.718 220.831C509.94 213.533 508.346 204.168 507.922 199.834C507.798 198.489 506.577 197.517 505.257 197.642C503.912 197.766 502.941 198.962 503.065 200.307C503.514 204.89 505.133 214.529 510.961 222.599C499.802 229.2 490.113 228.427 482.84 220.332C472.778 209.124 468.394 181.452 477.66 170.493C481.246 166.233 486.402 166.009 492.953 169.795C492.38 173.855 492.081 178.065 492.081 182.448C492.081 183.793 493.177 184.889 494.522 184.889C495.867 184.889 496.963 183.793 496.963 182.448C496.913 135.971 533.652 109.17 559.78 104.961C572.657 102.894 581.922 106.431 584.612 114.401C584.612 114.426 584.612 114.451 584.612 114.476C585.185 116.344 584.139 119.557 581.947 121.101C581.673 121.151 581.424 121.226 581.2 121.3C576.069 122.87 572.931 125.111 571.088 128.449C568.796 129.196 562.644 131.114 558.21 131.438H558.161C557.961 131.438 549.866 132.135 545.084 128.25C544.038 127.403 542.494 127.552 541.647 128.623C540.8 129.669 540.95 131.214 542.021 132.06C546.504 135.672 552.631 136.32 556.068 136.394C556.019 138.188 555.62 139.632 554.599 142.272C542.07 138.86 527.076 138.462 518.309 141.849C517.038 142.322 516.416 143.742 516.914 145.012C517.412 146.258 518.807 146.905 520.077 146.407C533.527 141.226 561.473 146.307 569.369 155.175C569.369 155.498 569.419 155.847 569.444 156.196C569.668 159.708 569.892 163.494 570.116 167.678C569.967 167.728 569.842 167.803 569.718 167.902C563.541 172.062 560.153 177.018 559.655 182.598C558.833 191.564 565.882 198.613 566.206 198.887C567.177 199.834 568.697 199.809 569.643 198.862C570.589 197.916 570.589 196.371 569.643 195.4C569.593 195.35 563.914 189.646 564.537 182.996C564.861 179.559 566.828 176.371 570.415 173.457C570.465 174.378 570.49 175.35 570.515 176.321C570.565 177.666 571.685 178.712 573.03 178.687C574.375 178.637 575.422 177.517 575.397 176.172C575.123 168.276 574.724 161.7 574.351 155.897C572.981 133.729 573.005 128.947 582.695 125.983C582.869 125.933 583.068 125.883 583.317 125.834C583.367 125.834 583.442 125.834 583.492 125.809C586.182 125.335 591.985 125.435 594.949 127.403C603.667 133.156 606.68 145.336 603.916 163.618C601.599 179.011 595.871 193.134 595.223 194.703V194.728ZM569.02 148.45C566.305 146.606 562.993 145.012 559.331 143.717C560.477 140.753 561.025 138.785 561.025 136.046C563.889 135.622 566.928 134.825 569.344 134.128C568.721 137.914 568.746 142.596 569.045 148.45H569.02ZM620.579 173.407C618.96 178.588 613.057 194.503 600.877 193.731C602.87 188.426 606.88 176.794 608.748 164.365C611.512 145.934 608.698 132.857 600.379 125.435C603.193 124.339 608.05 123.691 611.288 125.435C611.488 125.535 611.687 125.609 611.886 125.659C623.867 130.417 626.357 154.651 620.554 173.357L620.579 173.407Z" fill="black"/>
<path id="Vector_52" d="M160.087 134.126C157.421 134.027 154.532 134.724 151.469 136.194C145.765 138.884 142.203 145.36 142.95 151.612C143.199 153.504 143.797 155.323 144.719 156.892C145.516 158.237 146.637 159.482 148.006 160.628C151.394 163.467 155.653 164.987 159.912 164.987C161.108 164.987 162.278 164.862 163.449 164.613C169.028 163.443 173.786 159.333 175.604 154.127C177.497 148.623 175.978 142.321 171.768 138.46C168.879 135.795 164.719 134.251 160.062 134.102L160.087 134.126ZM160.336 162.372C152.789 162.372 146.686 156.543 146.686 149.37C146.686 142.196 152.814 136.368 160.336 136.368C167.858 136.368 173.985 142.196 173.985 149.37C173.985 156.543 167.858 162.372 160.336 162.372Z" fill="black"/>
<path id="Vector_53" d="M219.787 117.364C211.268 121.923 204.419 130.516 201.007 141.002C200.583 142.297 201.281 143.667 202.576 144.09C202.825 144.165 203.074 144.215 203.323 144.215C204.344 144.215 205.316 143.567 205.639 142.521C208.653 133.231 214.631 125.634 222.053 121.673C230.198 117.34 240.286 117.589 247.16 122.271C248.281 123.043 249.8 122.744 250.548 121.624C251.32 120.503 251.021 118.983 249.9 118.236C241.556 112.532 229.426 112.184 219.737 117.34L219.787 117.364Z" fill="black"/>
<path id="Vector_54" d="M543.191 168.45C542.27 167.478 540.701 167.454 539.729 168.375C537.513 170.492 527.674 173.73 515.893 172.659C514.548 172.535 513.352 173.531 513.253 174.876C513.128 176.221 514.124 177.417 515.469 177.516C517.163 177.666 518.857 177.74 520.526 177.74C530.837 177.74 539.929 174.951 543.142 171.887C544.113 170.966 544.138 169.396 543.216 168.425L543.191 168.45Z" fill="black"/>
<path id="Vector_55" d="M229.556 323.225L220.764 314.184C223.429 312.316 231.051 305.616 236.256 310.946C241.238 316.052 232.246 321.332 229.581 323.225H229.556ZM252.147 323.449C246.443 317.596 237.228 325.517 234.015 327.783L243.728 337.746C246.942 335.505 257.627 329.078 252.172 323.474L252.147 323.449ZM194.287 353.413C172.767 331.345 174.087 300.31 197.201 284.096C220.34 267.906 256.556 272.663 278.076 294.756C299.596 316.824 298.276 347.859 275.137 364.073C251.998 380.263 215.807 375.506 194.287 353.413ZM244.102 346.514L251.425 354.036L256.157 350.723L248.909 343.301C250.229 342.404 251.5 341.557 252.72 340.685L259.918 348.083L264.651 344.77L257.353 337.273C264.9 331.27 268.611 325.442 262.334 317.82C257.278 311.668 251.948 311.095 246.418 313.237C247.863 309.974 247.29 306.413 243.081 302.776C237.327 297.795 230.727 299.389 224.101 303.175L216.853 295.752L212.121 299.065L219.17 306.288C217.924 307.16 216.679 308.081 215.434 308.978L208.335 301.705L203.603 305.018L210.851 312.44C209.854 313.187 208.858 313.91 207.862 314.582L201.311 319.14L206.019 323.972C206.019 323.972 209.456 321.457 209.456 321.556C211.374 320.211 213.042 320.834 214.113 321.631L222.358 330.1C222.482 330 222.657 329.9 222.881 329.776C222.731 329.875 222.557 330 222.383 330.125L233.94 341.981C234.413 342.603 234.961 343.774 233.616 344.72C233.716 344.72 230.179 347.136 230.179 347.136L234.513 353.189L240.69 348.88C241.835 348.083 242.981 347.311 244.102 346.539V346.514Z" fill="black"/>
<path id="Vector_56" d="M244.189 346.613L251.512 354.135L256.245 350.822L248.997 343.4C250.317 342.503 251.587 341.656 252.807 340.785L260.006 348.182L264.738 344.869L257.44 337.372C264.987 331.37 268.698 325.541 262.422 317.92C257.366 311.767 252.035 311.195 246.506 313.337C247.95 310.074 247.378 306.512 243.168 302.875C237.415 297.894 230.814 299.488 224.189 303.274L216.941 295.852L212.208 299.164L219.257 306.387C218.012 307.259 216.766 308.181 215.521 309.077L208.422 301.804L203.69 305.117L210.938 312.54C209.942 313.287 208.945 314.009 207.949 314.682L201.398 319.24L206.106 324.072C206.106 324.072 209.543 321.556 209.543 321.656C211.461 320.311 213.13 320.933 214.201 321.73L222.445 330.199C222.57 330.099 222.744 330 222.968 329.875C222.819 329.975 222.645 330.099 222.47 330.224L234.027 342.08C234.5 342.702 235.048 343.873 233.703 344.82C233.803 344.82 230.266 347.236 230.266 347.236L234.6 353.288L240.777 348.979C241.923 348.182 243.069 347.41 244.189 346.638V346.613Z" fill="#F5D52B"/>
<path id="Vector_57" d="M229.378 323.622L220.586 314.581C223.251 312.713 230.873 306.013 236.078 311.343C241.06 316.449 232.068 321.729 229.403 323.622H229.378Z" fill="black"/>
<path id="Vector_58" d="M251.937 323.873C246.234 318.02 237.018 325.941 233.805 328.207L243.519 338.17C246.732 335.929 257.417 329.503 251.962 323.898L251.937 323.873Z" fill="black"/>
</g>
<defs>
<clipPath id="clip0_5803_3851">
<rect width="672.776" height="646" fill="white"/>
</clipPath>
</defs>
</svg>
